<svg width="99" height="97" viewBox="0 0 99 97" fill="none" xmlns="http://www.w3.org/2000/svg">
<g id="Isolation_Mode" clip-path="url(#clip0_5_485)">
<path id="Vector" d="M97.9465 88.5324H78.9532C78.8148 88.5324 78.6778 88.5052 78.55 88.4522C78.4222 88.3992 78.306 88.3215 78.2082 88.2235C78.1104 88.1256 78.0328 88.0093 77.9799 87.8814C77.9269 87.7534 77.8997 87.6163 77.8997 87.4778V68.0717C77.8917 67.4776 77.6504 66.9105 77.2279 66.4931C76.8054 66.0758 76.2357 65.8418 75.6421 65.8419C75.0514 65.8419 74.4848 66.0768 74.0671 66.495C73.6494 66.9131 73.4147 67.4803 73.4147 68.0717C73.4147 68.2102 73.3875 68.3474 73.3345 68.4753C73.2816 68.6033 73.204 68.7196 73.1062 68.8175C73.0084 68.9155 72.8922 68.9931 72.7644 69.0461C72.6366 69.0991 72.4996 69.1264 72.3612 69.1264C72.2217 69.1306 72.0829 69.1061 71.9532 69.0546C71.8235 69.0031 71.7056 68.9256 71.607 68.8268C71.5083 68.728 71.4309 68.61 71.3794 68.4802C71.3279 68.3504 71.3035 68.2113 71.3077 68.0717V63.3709C71.2999 62.7739 71.0595 62.2036 70.6378 61.7814C70.2161 61.3593 69.6465 61.1187 69.0502 61.1109C68.4538 61.1187 67.8842 61.3593 67.4625 61.7814C67.0408 62.2036 66.8004 62.7739 66.7926 63.3709C66.7926 63.5094 66.7654 63.6465 66.7124 63.7745C66.6595 63.9025 66.5819 64.0187 66.4841 64.1167C66.3862 64.2146 66.2701 64.2923 66.1423 64.3453C66.0145 64.3983 65.8774 64.4256 65.7391 64.4256C65.6007 64.4256 65.4638 64.3983 65.336 64.3453C65.2082 64.2923 65.092 64.2146 64.9942 64.1167C64.8964 64.0187 64.8188 63.9025 64.7659 63.7745C64.7129 63.6465 64.6857 63.5094 64.6857 63.3709V59.6042C64.6857 59.01 64.452 58.4397 64.0351 58.0167C63.6182 57.5937 63.0517 57.3521 62.4582 57.3442C61.8619 57.352 61.2922 57.5926 60.8705 58.0147C60.4488 58.4369 60.2084 59.0072 60.2006 59.6042C60.2006 59.7427 60.1734 59.8798 60.1205 60.0078C60.0675 60.1358 59.9899 60.252 59.8921 60.35C59.7943 60.4479 59.6781 60.5256 59.5503 60.5786C59.4225 60.6316 59.2856 60.6589 59.1472 60.6589C58.8678 60.6589 58.5998 60.5478 58.4022 60.35C58.2047 60.1522 58.0937 59.8839 58.0937 59.6042V44.5374C58.0977 44.242 58.043 43.9488 57.9328 43.6748C57.8227 43.4008 57.6592 43.1514 57.452 42.9412C57.2447 42.7309 56.9978 42.5639 56.7256 42.45C56.4534 42.336 56.1613 42.2774 55.8662 42.2774C55.2675 42.2774 54.6933 42.5155 54.27 42.9394C53.8466 43.3632 53.6087 43.938 53.6087 44.5374V78.4678C53.6072 78.6884 53.5368 78.9029 53.4072 79.0813C53.2776 79.2597 53.0954 79.3929 52.8863 79.4622C52.6699 79.5315 52.4373 79.531 52.2212 79.4607C52.0052 79.3904 51.8166 79.2539 51.6823 79.0705L48.913 75.0627C48.4972 74.6726 47.9478 74.4569 47.378 74.46C47.0835 74.4547 46.7908 74.5079 46.517 74.6165C46.2431 74.7252 45.9936 74.8871 45.7826 75.0929C45.3599 75.5166 45.1224 76.0911 45.1224 76.69C45.1224 77.2889 45.3599 77.8633 45.7826 78.287L45.9632 78.5281L50.7191 87.0258C50.8406 87.1915 50.904 87.3928 50.8997 87.5983C50.8997 87.878 50.7887 88.1463 50.5911 88.3441C50.3935 88.5419 50.1255 88.653 49.8461 88.653H1.02338C0.883899 88.6572 0.745043 88.6327 0.61534 88.5812C0.485638 88.5297 0.367886 88.4522 0.269216 88.3534C0.170545 88.2546 0.0930588 88.1366 0.0415895 88.0068C-0.00987979 87.877 -0.0342268 87.7379 -0.0300604 87.5983V1.14505C-0.0342268 1.00542 -0.00987979 0.866412 0.0415895 0.736567C0.0930588 0.606721 0.170545 0.488793 0.269216 0.390014C0.367886 0.291234 0.485638 0.213708 0.61534 0.162182C0.745043 0.110656 0.883899 0.0861901 1.02338 0.090361H97.9164C98.1958 0.090361 98.4638 0.201512 98.6613 0.399302C98.8589 0.597092 98.9699 0.865337 98.9699 1.14505V87.5681C98.9477 87.8268 98.8311 88.0682 98.6423 88.2461C98.4535 88.424 98.2057 88.526 97.9465 88.5324ZM80.0368 86.4231H96.893V2.04907H2.10704V86.4231H48.0702L44.2174 79.5526C43.4445 78.7402 43.0134 77.6612 43.0134 76.5392C43.0134 75.4173 43.4445 74.3383 44.2174 73.5259C45.0158 72.7247 46.097 72.2701 47.2274 72.2603C48.3578 72.2701 49.439 72.7247 50.2374 73.5259C50.2502 73.5753 50.2502 73.6272 50.2374 73.6766L51.1705 75.0025V44.4169C51.1705 43.2581 51.6304 42.1467 52.4489 41.3273C53.2675 40.5079 54.3776 40.0475 55.5351 40.0475C56.1069 40.0475 56.673 40.1607 57.2008 40.3807C57.7287 40.6006 58.2079 40.923 58.6108 41.3291C59.0136 41.7352 59.3323 42.2171 59.5484 42.7471C59.7644 43.277 59.8736 43.8445 59.8696 44.4169V55.8677C60.5522 55.4587 61.3317 55.2402 62.1271 55.2349C62.7347 55.1759 63.3478 55.2451 63.927 55.4381C64.5062 55.6311 65.0385 55.9435 65.4895 56.3553C65.9405 56.7671 66.3003 57.269 66.5455 57.8286C66.7907 58.3882 66.9159 58.9931 66.9131 59.6042C67.5832 59.1921 68.354 58.9732 69.1404 58.9714C70.298 58.9714 71.4082 59.4317 72.2267 60.2511C73.0452 61.0705 73.505 62.182 73.505 63.3408V64.4256C74.1712 64.0045 74.9446 63.7848 75.7324 63.7928C76.89 63.7928 78.0001 64.2531 78.8186 65.0725C79.6371 65.8919 80.097 67.0033 80.097 68.1621V86.4834L80.0368 86.4231Z" fill="white"/>
<path id="Vector_2" d="M97.9465 18.954H1.0535C0.91515 18.954 0.778149 18.9267 0.650331 18.8737C0.522513 18.8207 0.406351 18.743 0.308524 18.6451C0.210696 18.5471 0.133106 18.4309 0.0801623 18.3029C0.0272184 18.175 -3.05176e-05 18.0378 -3.05176e-05 17.8993C-3.05176e-05 17.7608 0.0272184 17.6237 0.0801623 17.4957C0.133106 17.3677 0.210696 17.2515 0.308524 17.1536C0.406351 17.0556 0.522513 16.9779 0.650331 16.9249C0.778149 16.8719 0.91515 16.8447 1.0535 16.8447H97.9465C98.0848 16.8447 98.2218 16.8719 98.3497 16.9249C98.4775 16.9779 98.5936 17.0556 98.6915 17.1536C98.7893 17.2515 98.8669 17.3677 98.9198 17.4957C98.9728 17.6237 99 17.7608 99 17.8993C99 18.0378 98.9728 18.175 98.9198 18.3029C98.8669 18.4309 98.7893 18.5471 98.6915 18.6451C98.5936 18.743 98.4775 18.8207 98.3497 18.8737C98.2218 18.9267 98.0848 18.954 97.9465 18.954Z" fill="white"/>
<path id="Vector_3" d="M30.5218 18.954C30.2424 18.954 29.9744 18.8428 29.7768 18.645C29.5792 18.4473 29.4682 18.179 29.4682 17.8993V1.14503C29.4761 0.870569 29.5905 0.61 29.7873 0.418681C29.984 0.227362 30.2475 0.120388 30.5218 0.1205C30.6587 0.116467 30.795 0.139974 30.9226 0.189654C31.0503 0.239333 31.1667 0.314173 31.265 0.409715C31.3632 0.505257 31.4412 0.619567 31.4945 0.745876C31.5479 0.872185 31.5754 1.00791 31.5753 1.14503V18.0199C31.5523 18.2809 31.4303 18.5232 31.2343 18.697C31.0384 18.8707 30.7834 18.9627 30.5218 18.954Z" fill="white"/>
<path id="Vector_4" d="M97.9465 10.5166H53.6989C53.4195 10.5166 53.1516 10.4055 52.9541 10.2077C52.7565 10.0099 52.6455 9.74165 52.6455 9.46194C52.6455 9.18222 52.7565 8.91397 52.9541 8.71618C53.1516 8.51839 53.4195 8.40729 53.6989 8.40729H97.9465C98.0848 8.40729 98.2218 8.43457 98.3496 8.48757C98.4775 8.54057 98.5936 8.61825 98.6914 8.71618C98.7893 8.81412 98.8669 8.93041 98.9198 9.05837C98.9728 9.18633 99 9.32343 99 9.46194C99 9.60044 98.9728 9.73759 98.9198 9.86555C98.8669 9.99351 98.7893 10.1098 98.6914 10.2077C98.5936 10.3057 98.4775 10.3833 98.3496 10.4363C98.2218 10.4894 98.0848 10.5166 97.9465 10.5166Z" fill="white"/>
<path id="Vector_5" d="M47.3779 10.5166C47.2429 10.5218 47.1083 10.4975 46.9836 10.4455C46.8589 10.3934 46.7469 10.3149 46.6555 10.2153C46.5498 10.1206 46.4656 10.0045 46.4085 9.87452C46.3514 9.74457 46.3227 9.60389 46.3244 9.46194C46.325 9.32475 46.3549 9.18929 46.412 9.06457C46.4691 8.93986 46.5521 8.82879 46.6555 8.73876C46.7454 8.63524 46.8564 8.55213 46.9809 8.49497C47.1055 8.43781 47.2409 8.40791 47.3779 8.40729C47.6625 8.41453 47.9328 8.5336 48.1305 8.73876C48.2299 8.8303 48.3083 8.94237 48.3603 9.06724C48.4123 9.19211 48.4365 9.32676 48.4314 9.46194C48.4389 9.60186 48.4159 9.74175 48.364 9.87185C48.312 10.002 48.2323 10.1191 48.1305 10.2153C48.0332 10.3156 47.9159 10.3944 47.7863 10.4463C47.6566 10.4982 47.5175 10.5222 47.3779 10.5166Z" fill="white"/>
<path id="Vector_6" d="M97.9465 78.0159H78.9532C78.6738 78.0159 78.4058 77.9048 78.2082 77.707C78.0106 77.5092 77.8997 77.2409 77.8997 76.9612C77.8997 76.6815 78.0106 76.4132 78.2082 76.2154C78.4058 76.0176 78.6738 75.9065 78.9532 75.9065H97.9164C98.1958 75.9065 98.4638 76.0176 98.6613 76.2154C98.8589 76.4132 98.9699 76.6815 98.9699 76.9612C98.97 77.2358 98.8632 77.4996 98.6721 77.6965C98.481 77.8934 98.2206 78.008 97.9465 78.0159Z" fill="white"/>
<path id="Vector_7" d="M32.6287 78.0158H1.0535C0.91515 78.0158 0.778149 77.9886 0.650331 77.9356C0.522513 77.8826 0.406351 77.8049 0.308524 77.707C0.210696 77.609 0.133106 77.4927 0.0801623 77.3648C0.0272184 77.2368 -3.05176e-05 77.0997 -3.05176e-05 76.9612C-3.05176e-05 76.8227 0.0272184 76.6855 0.0801623 76.5575C0.133106 76.4296 0.210696 76.3133 0.308524 76.2154C0.406351 76.1174 0.522513 76.0397 0.650331 75.9867C0.778149 75.9337 0.91515 75.9065 1.0535 75.9065H32.6287C32.7682 75.9023 32.9071 75.9268 33.0368 75.9783C33.1665 76.0298 33.2843 76.1073 33.383 76.2061C33.4816 76.3048 33.5591 76.4228 33.6106 76.5527C33.6621 76.6825 33.6864 76.8215 33.6823 76.9612C33.6823 77.2409 33.5713 77.5092 33.3737 77.707C33.1761 77.9047 32.9081 78.0158 32.6287 78.0158Z" fill="white"/>
<path id="Vector_8" d="M72.3913 72.6219C72.2518 72.6261 72.113 72.6016 71.9833 72.5501C71.8536 72.4986 71.7357 72.4211 71.6371 72.3223C71.5384 72.2235 71.461 72.1056 71.4095 71.9757C71.3581 71.8459 71.3336 71.7069 71.3378 71.5672V68.0717C71.3378 67.792 71.4488 67.5238 71.6464 67.326C71.8439 67.1282 72.1119 67.017 72.3913 67.017C72.6707 67.017 72.9386 67.1282 73.1362 67.326C73.3338 67.5238 73.4449 67.792 73.4449 68.0717V71.5672C73.4449 71.8469 73.3338 72.1152 73.1362 72.313C72.9386 72.5108 72.6707 72.6219 72.3913 72.6219Z" fill="white"/>
<path id="Vector_9" d="M65.7993 67.9211C65.5199 67.9211 65.2519 67.81 65.0544 67.6122C64.8568 67.4144 64.7458 67.1461 64.7458 66.8664V63.3709C64.7458 63.0912 64.8568 62.823 65.0544 62.6252C65.2519 62.4274 65.5199 62.3162 65.7993 62.3162C65.9377 62.3162 66.0747 62.3435 66.2025 62.3965C66.3303 62.4495 66.4465 62.5273 66.5443 62.6252C66.6422 62.7231 66.7197 62.8393 66.7727 62.9673C66.8256 63.0953 66.8529 63.2324 66.8529 63.3709V66.8664C66.8529 67.0049 66.8256 67.1421 66.7727 67.27C66.7197 67.398 66.6422 67.5143 66.5443 67.6122C66.4465 67.7102 66.3303 67.7878 66.2025 67.8408C66.0747 67.8938 65.9377 67.9211 65.7993 67.9211Z" fill="white"/>
<path id="Vector_10" d="M59.1772 64.1242C58.903 64.1243 58.6395 64.0174 58.4427 63.8261C58.246 63.6348 58.1316 63.3742 58.1237 63.0997V59.3932C58.1237 59.2547 58.151 59.1177 58.2039 58.9897C58.2569 58.8617 58.3345 58.7455 58.4324 58.6475C58.5302 58.5496 58.6463 58.4719 58.7741 58.4189C58.9019 58.3659 59.0389 58.3386 59.1772 58.3386C59.3156 58.3386 59.4526 58.3659 59.5804 58.4189C59.7082 58.4719 59.8244 58.5496 59.9222 58.6475C60.0201 58.7455 60.0976 58.8617 60.1506 58.9897C60.2035 59.1177 60.2308 59.2547 60.2308 59.3932V63.0997C60.2308 63.2368 60.2034 63.3726 60.1501 63.4989C60.0968 63.6252 60.0187 63.7395 59.9205 63.835C59.8222 63.9305 59.7058 64.0054 59.5781 64.0551C59.4505 64.1047 59.3142 64.1283 59.1772 64.1242Z" fill="white"/>
<path id="Vector_11" d="M66.3411 48.485H59.1772C59.0389 48.485 58.9019 48.4577 58.7741 48.4047C58.6463 48.3517 58.5302 48.274 58.4324 48.176C58.3345 48.0781 58.2569 47.9618 58.2039 47.8339C58.151 47.7059 58.1237 47.5688 58.1237 47.4303V44.4169C58.1277 44.1216 58.0731 43.8284 57.963 43.5543C57.8528 43.2803 57.6893 43.0309 57.4821 42.8206C57.2748 42.6104 57.028 42.4434 56.7558 42.3295C56.4835 42.2155 56.1914 42.1569 55.8963 42.1569C55.2976 42.1569 54.7234 42.395 54.3 42.8188C53.8766 43.2427 53.6388 43.8175 53.6388 44.4169V47.4303C53.6388 47.71 53.5278 47.9782 53.3302 48.176C53.1327 48.3738 52.8647 48.485 52.5853 48.485H45.2709C44.9915 48.485 44.7235 48.3738 44.5259 48.176C44.3284 47.9782 44.2174 47.71 44.2174 47.4303V34.7742C44.2174 34.4945 44.3284 34.2262 44.5259 34.0284C44.7235 33.8306 44.9915 33.7195 45.2709 33.7195H66.3411C66.6205 33.7195 66.8885 33.8306 67.0861 34.0284C67.2837 34.2262 67.3947 34.4945 67.3947 34.7742V47.4303C67.3947 47.71 67.2837 47.9782 67.0861 48.176C66.8885 48.3738 66.6205 48.485 66.3411 48.485ZM60.3211 46.3756H65.3779V35.8288H46.4147V46.3455H51.6221V44.3868C51.6221 43.228 52.0819 42.1166 52.9004 41.2972C53.7189 40.4777 54.8291 40.0174 55.9866 40.0174C56.5584 40.0174 57.1244 40.1306 57.6523 40.3506C58.1801 40.5705 58.6594 40.8929 59.0622 41.299C59.4651 41.7051 59.7838 42.187 59.9998 42.717C60.2159 43.2469 60.325 43.8144 60.3211 44.3868V46.3455V46.3756Z" fill="white"/>
<path id="Vector_12" d="M38.9498 69.5784H17.8796C17.7412 69.5784 17.6042 69.5511 17.4764 69.4981C17.3486 69.4451 17.2325 69.3674 17.1347 69.2695C17.0369 69.1716 16.9592 69.0553 16.9062 68.9273C16.8533 68.7994 16.826 68.6622 16.826 68.5237V55.8677C16.826 55.7291 16.8533 55.592 16.9062 55.464C16.9592 55.3361 17.0369 55.2198 17.1347 55.1219C17.2325 55.0239 17.3486 54.9462 17.4764 54.8932C17.6042 54.8402 17.7412 54.813 17.8796 54.813H38.9498C39.0893 54.8088 39.2282 54.8333 39.3579 54.8848C39.4876 54.9363 39.6054 55.0138 39.7041 55.1126C39.8027 55.2113 39.8801 55.3293 39.9316 55.4592C39.9831 55.589 40.0075 55.728 40.0033 55.8677V68.5237C40.0033 68.8034 39.8924 69.0717 39.6948 69.2695C39.4972 69.4673 39.2292 69.5784 38.9498 69.5784ZM18.9632 67.4691H37.8963V56.9223H18.9632V67.4691Z" fill="white"/>
<path id="Vector_13" d="M59.0268 96.9698C57.225 96.7933 55.5018 96.1429 54.0322 95.0845C52.5626 94.026 51.3989 92.5972 50.6589 90.9431L44.2174 79.4322C43.4554 78.615 43.0354 77.5366 43.0435 76.4188C43.049 75.8557 43.1662 75.2993 43.3884 74.782C43.6106 74.2647 43.9334 73.7968 44.3378 73.4054C45.1362 72.6042 46.2174 72.1496 47.3478 72.1398C48.4783 72.1496 49.5595 72.6042 50.3579 73.4054C50.3706 73.4549 50.3706 73.5067 50.3579 73.5561L51.291 74.882V44.4169C51.291 43.2581 51.7508 42.1467 52.5693 41.3273C53.3878 40.5079 54.498 40.0475 55.6556 40.0475C56.2273 40.0475 56.7934 40.1608 57.3212 40.3807C57.8491 40.6007 58.3283 40.923 58.7312 41.3291C59.1341 41.7352 59.4526 42.2171 59.6687 42.7471C59.8847 43.277 59.994 43.8445 59.99 44.4169V55.8677C60.6726 55.4587 61.4521 55.2403 62.2475 55.2349C62.8455 55.1935 63.4455 55.2759 64.0103 55.4768C64.5751 55.6778 65.0925 55.993 65.5302 56.403C65.9679 56.8129 66.3166 57.3088 66.5545 57.8595C66.7924 58.4103 66.9145 59.0042 66.9131 59.6042C67.5832 59.1921 68.354 58.9732 69.1404 58.9714C70.298 58.9714 71.4082 59.4317 72.2267 60.2512C73.0452 61.0706 73.505 62.182 73.505 63.3408V64.4256C74.1712 64.0045 74.9446 63.7848 75.7324 63.7928C76.89 63.7928 78.0001 64.2531 78.8186 65.0725C79.6371 65.892 80.097 67.0033 80.097 68.1621V91.1239C80.097 93.3538 79.0736 97.1506 72.3311 97.1506H59.087L59.0268 96.9698ZM47.408 74.3396C47.1135 74.3342 46.8209 74.3874 46.5471 74.496C46.2733 74.6046 46.0236 74.7665 45.8127 74.9724C45.3946 75.3994 45.1574 75.9715 45.1505 76.5694C45.151 77.1686 45.3892 77.7431 45.8127 78.1665C45.8891 78.2333 45.9507 78.3155 45.9933 78.4076L52.5251 90.0693C52.5251 90.0693 54.8127 94.8304 58.9967 94.8304H72.2408C77.2976 94.8304 77.8997 92.6607 77.8997 91.0335V68.0417C77.8917 67.4475 77.6504 66.8803 77.2279 66.463C76.8054 66.0456 76.2357 65.8117 75.6421 65.8117C75.0514 65.8117 74.4848 66.0466 74.0671 66.4648C73.6494 66.883 73.4147 67.4503 73.4147 68.0417C73.4147 68.1802 73.3875 68.3173 73.3345 68.4453C73.2816 68.5732 73.204 68.6894 73.1062 68.7874C73.0084 68.8853 72.8922 68.963 72.7644 69.016C72.6366 69.069 72.4996 69.0963 72.3612 69.0963C72.2217 69.1004 72.0829 69.0761 71.9532 69.0245C71.8235 68.973 71.7056 68.8954 71.607 68.7967C71.5083 68.6979 71.4309 68.58 71.3794 68.4502C71.3279 68.3203 71.3035 68.1813 71.3077 68.0417V63.3408C71.2999 62.7439 71.0595 62.1736 70.6378 61.7514C70.2162 61.3292 69.6465 61.0886 69.0502 61.0808C68.4538 61.0886 67.8842 61.3292 67.4625 61.7514C67.0408 62.1736 66.8004 62.7439 66.7926 63.3408C66.7926 63.6206 66.6816 63.8888 66.4841 64.0865C66.2865 64.2843 66.0185 64.3954 65.7391 64.3954C65.4649 64.3876 65.2047 64.273 65.0136 64.0761C64.8225 63.8791 64.7156 63.6154 64.7157 63.3408V59.6042C64.7079 59.0072 64.4676 58.4369 64.0459 58.0148C63.6242 57.5926 63.0545 57.352 62.4582 57.3442C61.8619 57.352 61.2922 57.5926 60.8705 58.0148C60.4488 58.4369 60.2084 59.0072 60.2006 59.6042C60.2006 59.8839 60.0897 60.1522 59.8921 60.35C59.6945 60.5478 59.4266 60.6589 59.1472 60.6589C59.0089 60.6589 58.8719 60.6316 58.744 60.5786C58.6162 60.5256 58.5001 60.4479 58.4022 60.35C58.3044 60.2521 58.2268 60.1358 58.1739 60.0078C58.1209 59.8799 58.0937 59.7427 58.0937 59.6042V44.5374C58.0977 44.2421 58.043 43.9489 57.9328 43.6748C57.8227 43.4008 57.6592 43.1514 57.452 42.9412C57.2447 42.7309 56.9978 42.564 56.7256 42.45C56.4534 42.3361 56.1613 42.2774 55.8662 42.2774C55.2675 42.2774 54.6933 42.5155 54.27 42.9394C53.8466 43.3632 53.6087 43.938 53.6087 44.5374V78.4679C53.6072 78.6884 53.5368 78.903 53.4072 79.0813C53.2776 79.2597 53.0954 79.3929 52.8863 79.4622C52.6699 79.5315 52.4373 79.5311 52.2212 79.4608C52.0052 79.3905 51.8166 79.2539 51.6823 79.0705L48.913 75.0628C48.524 74.6355 47.9844 74.3762 47.408 74.3396Z" fill="white"/>
<path id="Vector_14" d="M97.9465 42.1569H66.3411C66.0617 42.1569 65.7937 42.0458 65.5962 41.848C65.3986 41.6502 65.2876 41.3819 65.2876 41.1022C65.2876 40.8225 65.3986 40.5542 65.5962 40.3564C65.7937 40.1587 66.0617 40.0475 66.3411 40.0475H97.9465C98.0848 40.0475 98.2218 40.0748 98.3497 40.1278C98.4775 40.1808 98.5936 40.2585 98.6915 40.3564C98.7893 40.4544 98.8669 40.5707 98.9198 40.6986C98.9728 40.8266 99 40.9637 99 41.1022C99 41.2407 98.9728 41.3778 98.9198 41.5058C98.8669 41.6338 98.7893 41.7501 98.6915 41.848C98.5936 41.9459 98.4775 42.0236 98.3497 42.0766C98.2218 42.1296 98.0848 42.1569 97.9465 42.1569Z" fill="white"/>
<path id="Vector_15" d="M45.2709 42.1569H1.0535C0.91515 42.1569 0.778149 42.1296 0.650331 42.0766C0.522513 42.0236 0.406351 41.9459 0.308524 41.848C0.210696 41.7501 0.133106 41.6338 0.0801623 41.5058C0.0272184 41.3778 -3.05176e-05 41.2407 -3.05176e-05 41.1022C-3.05176e-05 40.9637 0.0272184 40.8266 0.0801623 40.6986C0.133106 40.5707 0.210696 40.4544 0.308524 40.3564C0.406351 40.2585 0.522513 40.1808 0.650331 40.1278C0.778149 40.0748 0.91515 40.0475 1.0535 40.0475H45.2709C45.4092 40.0475 45.5462 40.0748 45.6741 40.1278C45.8019 40.1808 45.918 40.2585 46.0159 40.3564C46.1137 40.4544 46.1913 40.5707 46.2442 40.6986C46.2972 40.8266 46.3244 40.9637 46.3244 41.1022C46.3244 41.2407 46.2972 41.3778 46.2442 41.5058C46.1913 41.6338 46.1137 41.7501 46.0159 41.848C45.918 41.9459 45.8019 42.0236 45.6741 42.0766C45.5462 42.1296 45.4092 42.1569 45.2709 42.1569Z" fill="white"/>
<path id="Vector_16" d="M17.9097 63.2503H1.0535C0.91515 63.2503 0.778149 63.2231 0.650331 63.1701C0.522513 63.1171 0.406351 63.0394 0.308524 62.9415C0.210696 62.8435 0.133106 62.7273 0.0801623 62.5994C0.0272184 62.4714 -3.05176e-05 62.3342 -3.05176e-05 62.1957C-3.05176e-05 62.0572 0.0272184 61.9201 0.0801623 61.7921C0.133106 61.6642 0.210696 61.5479 0.308524 61.4499C0.406351 61.352 0.522513 61.2743 0.650331 61.2213C0.778149 61.1683 0.91515 61.1411 1.0535 61.1411H17.9097C18.0481 61.1411 18.1851 61.1683 18.3129 61.2213C18.4407 61.2743 18.5569 61.352 18.6547 61.4499C18.7525 61.5479 18.8301 61.6642 18.883 61.7921C18.936 61.9201 18.9632 62.0572 18.9632 62.1957C18.9632 62.3342 18.936 62.4714 18.883 62.5994C18.8301 62.7273 18.7525 62.8435 18.6547 62.9415C18.5569 63.0394 18.4407 63.1171 18.3129 63.1701C18.1851 63.2231 18.0481 63.2503 17.9097 63.2503Z" fill="white"/>
<path id="Vector_17" d="M51.592 63.2503H38.9498C38.8115 63.2503 38.6744 63.223 38.5466 63.17C38.4188 63.117 38.3027 63.0394 38.2049 62.9414C38.1071 62.8435 38.0294 62.7273 37.9765 62.5993C37.9235 62.4714 37.8963 62.3342 37.8963 62.1957C37.8963 62.0572 37.9235 61.9201 37.9765 61.7921C38.0294 61.6641 38.1071 61.5479 38.2049 61.4499C38.3027 61.352 38.4188 61.2743 38.5466 61.2213C38.6744 61.1683 38.8115 61.141 38.9498 61.141H51.592C51.7315 61.1369 51.8703 61.1612 52 61.2128C52.1297 61.2643 52.2475 61.3418 52.3461 61.4406C52.4448 61.5394 52.5223 61.6574 52.5738 61.7872C52.6252 61.9171 52.6497 62.0561 52.6455 62.1957C52.6455 62.3342 52.6183 62.4714 52.5653 62.5993C52.5124 62.7273 52.4348 62.8435 52.337 62.9414C52.2391 63.0394 52.123 63.117 51.9951 63.17C51.8673 63.223 51.7303 63.2503 51.592 63.2503Z" fill="white"/>
<path id="Vector_18" d="M97.9465 63.2503H85.3043C85.166 63.2503 85.0291 63.223 84.9012 63.17C84.7734 63.117 84.6573 63.0394 84.5594 62.9414C84.4616 62.8435 84.384 62.7273 84.3311 62.5993C84.2781 62.4714 84.2509 62.3342 84.2509 62.1957C84.2467 62.0561 84.2711 61.9171 84.3225 61.7872C84.374 61.6574 84.4515 61.5394 84.5502 61.4406C84.6488 61.3418 84.7666 61.2643 84.8963 61.2128C85.026 61.1612 85.1648 61.1369 85.3043 61.141H97.9465C98.0848 61.141 98.2219 61.1683 98.3497 61.2213C98.4775 61.2743 98.5936 61.352 98.6915 61.4499C98.7893 61.5479 98.8669 61.6641 98.9198 61.7921C98.9728 61.9201 99 62.0572 99 62.1957C99 62.3342 98.9728 62.4714 98.9198 62.5993C98.8669 62.7273 98.7893 62.8435 98.6915 62.9414C98.5936 63.0394 98.4775 63.117 98.3497 63.17C98.2219 63.223 98.0848 63.2503 97.9465 63.2503Z" fill="white"/>
<path id="Vector_19" d="M11.5886 7.38275H7.37457V11.6015H11.5886V7.38275Z" fill="white"/>
<path id="Vector_20" d="M17.9097 7.38275H13.6956V11.6015H17.9097V7.38275Z" fill="white"/>
<path id="Vector_21" d="M24.2308 7.38275H20.0167V11.6015H24.2308V7.38275Z" fill="white"/>
<path id="Vector_22" d="M78.9833 24.2575H74.7692V28.4762H78.9833V24.2575Z" fill="white"/>
<path id="Vector_23" d="M72.6622 24.2575H68.4482V28.4762H72.6622V24.2575Z" fill="white"/>
<path id="Vector_24" d="M66.3411 24.2575H62.1271V28.4762H66.3411V24.2575Z" fill="white"/>
<path id="Vector_25" d="M85.3044 24.2575H81.0903V28.4762H85.3044V24.2575Z" fill="white"/>
<path id="Vector_26" d="M91.6254 24.2575H87.4114V28.4762H91.6254V24.2575Z" fill="white"/>
</g>
<defs>
<clipPath id="clip0_5_485">
<rect width="99" height="97" fill="white"/>
</clipPath>
</defs>
</svg>
