<svg width="15" height="14" viewBox="0 0 15 14" fill="none" xmlns="http://www.w3.org/2000/svg">
<path d="M1.875 1.40625C1.61719 1.40625 1.40625 1.61719 1.40625 1.875V11.25C1.40625 11.5078 1.61719 11.7188 1.875 11.7188H13.125C13.3828 11.7188 13.5938 11.5078 13.5938 11.25V1.875C13.5938 1.61719 13.3828 1.40625 13.125 1.40625H1.875ZM0 1.875C0 0.84082 0.84082 0 1.875 0H13.125C14.1592 0 15 0.84082 15 1.875V11.25C15 12.2842 14.1592 13.125 13.125 13.125H1.875C0.84082 13.125 0 12.2842 0 11.25V1.875ZM5.12695 4.18945C5.40234 3.91406 5.84766 3.91406 6.12012 4.18945L7.49707 5.56641L8.87402 4.18945C9.14941 3.91406 9.59473 3.91406 9.86719 4.18945C10.1396 4.46484 10.1426 4.91016 9.86719 5.18262L8.49023 6.55957L9.86719 7.93652C10.1426 8.21191 10.1426 8.65723 9.86719 8.92969C9.5918 9.20215 9.14648 9.20508 8.87402 8.92969L7.49707 7.55273L6.12012 8.92969C5.84473 9.20508 5.39941 9.20508 5.12695 8.92969C4.85449 8.6543 4.85156 8.20898 5.12695 7.93652L6.50391 6.55957L5.12695 5.18262C4.85156 4.90723 4.85156 4.46191 5.12695 4.18945Z" fill="#C1C1D1"/>
</svg>
