<svg width="77" height="71" viewBox="0 0 77 71" fill="none" xmlns="http://www.w3.org/2000/svg">
<g id="_1" clip-path="url(#clip0_5_379)">
<path id="Vector" d="M38.5 58.3738C38.2875 58.3738 38.0838 58.2906 37.9335 58.1426C37.7833 57.9946 37.6989 57.7939 37.6989 57.5846V39.9079C37.6989 39.6986 37.7833 39.4979 37.9335 39.3499C38.0838 39.2019 38.2875 39.1188 38.5 39.1188C38.7125 39.1188 38.9162 39.2019 39.0665 39.3499C39.2167 39.4979 39.3011 39.6986 39.3011 39.9079V57.5846C39.3011 57.7939 39.2167 57.9946 39.0665 58.1426C38.9162 58.2906 38.7125 58.3738 38.5 58.3738Z" fill="white"/>
<path id="Vector_2" d="M38.3398 59.952C38.1987 59.952 38.0603 59.9143 37.9394 59.8428C37.8184 59.7713 37.7195 59.6688 37.6531 59.5462L27.3986 42.2077C27.3198 42.02 27.3198 41.8092 27.3986 41.6215L32.2054 21.1264C32.2466 20.9534 32.3459 20.7992 32.4871 20.6888C32.6283 20.5783 32.8033 20.518 32.9837 20.5176H44.1995C44.3798 20.518 44.5548 20.5783 44.696 20.6888C44.8372 20.7992 44.9365 20.9534 44.9777 21.1264L49.7845 41.4185C49.8526 41.6082 49.8526 41.8151 49.7845 42.0048L39.2096 59.456C39.1404 59.6216 39.0177 59.7601 38.8603 59.8498C38.703 59.9395 38.52 59.9754 38.3398 59.952ZM28.9322 41.6891L38.3398 57.6072L48.0678 41.5764L43.4899 22.0959H33.5559L28.9322 41.6891Z" fill="white"/>
<path id="Vector_3" d="M38.3627 40.7647C37.4782 40.7588 36.6317 40.4101 36.0062 39.794C35.3808 39.1779 35.0268 38.3441 35.0208 37.4728C35.0208 37.0406 35.1073 36.6125 35.2752 36.2131C35.4431 35.8137 35.6893 35.4509 35.9996 35.1452C36.3099 34.8395 36.6783 34.597 37.0838 34.4316C37.4893 34.2662 37.9238 34.181 38.3627 34.181C38.8015 34.181 39.2361 34.2662 39.6416 34.4316C40.047 34.597 40.4154 34.8395 40.7257 35.1452C41.036 35.4509 41.2822 35.8137 41.4501 36.2131C41.6181 36.6125 41.7045 37.0406 41.7045 37.4728C41.7045 38.3459 41.3524 39.1832 40.7257 39.8005C40.099 40.4179 39.249 40.7647 38.3627 40.7647ZM38.3627 35.7593C37.9031 35.7651 37.4641 35.9476 37.1392 36.2677C36.8142 36.5877 36.629 37.0202 36.6231 37.4728C36.629 37.9255 36.8142 38.358 37.1392 38.6781C37.4641 38.9982 37.9031 39.1806 38.3627 39.1864C38.824 39.1864 39.2665 39.0059 39.5928 38.6846C39.919 38.3632 40.1023 37.9273 40.1023 37.4728C40.1115 37.2422 40.0734 37.0121 39.9901 36.7963C39.9068 36.5806 39.7801 36.3836 39.6177 36.2172C39.4552 36.0509 39.2603 35.9186 39.0446 35.8282C38.829 35.7379 38.597 35.6915 38.3627 35.6917V35.7593Z" fill="white"/>
<path id="Vector_4" d="M48.9147 22.0733H28.0853C27.8729 22.0733 27.6691 21.9902 27.5188 21.8422C27.3686 21.6942 27.2842 21.4935 27.2842 21.2842V14.9936C27.2842 14.7843 27.3686 14.5836 27.5188 14.4356C27.6691 14.2876 27.8729 14.2045 28.0853 14.2045H48.9147C49.1271 14.2045 49.3309 14.2876 49.4812 14.4356C49.6314 14.5836 49.7158 14.7843 49.7158 14.9936V21.2842C49.7158 21.4935 49.6314 21.6942 49.4812 21.8422C49.3309 21.9902 49.1271 22.0733 48.9147 22.0733ZM28.8864 20.4951H48.1135V15.7828H28.8864V20.4951Z" fill="white"/>
<path id="Vector_5" d="M45.7102 15.7828H31.2898C31.0773 15.7828 30.8736 15.6997 30.7233 15.5517C30.5731 15.4037 30.4887 15.2029 30.4887 14.9937V0.789136C30.4887 0.579843 30.5731 0.379134 30.7233 0.231142C30.8736 0.0831492 31.0773 0 31.2898 0H45.7102C45.9226 0 46.1264 0.0831492 46.2766 0.231142C46.4269 0.379134 46.5113 0.579843 46.5113 0.789136V14.9937C46.5113 15.2029 46.4269 15.4037 46.2766 15.5517C46.1264 15.6997 45.9226 15.7828 45.7102 15.7828ZM32.091 14.2045H44.909V1.57829H32.091V14.2045Z" fill="white"/>
<path id="Vector_6" d="M6.47769 36.2553C6.26127 36.2499 6.05572 36.1608 5.90545 36.0073L0.228852 30.4382C0.0872748 30.2881 0.00860596 30.0908 0.00860596 29.8858C0.00860596 29.6809 0.0872748 29.4836 0.228852 29.3334L5.90545 23.7418C6.05788 23.6023 6.2582 23.5248 6.46623 23.5248C6.67426 23.5248 6.87459 23.6023 7.02701 23.7418L12.7265 29.4913C12.8681 29.6414 12.9467 29.8387 12.9467 30.0437C12.9467 30.2486 12.8681 30.4459 12.7265 30.5961L7.04992 36.1651C6.87729 36.2645 6.67318 36.2966 6.47769 36.2553ZM1.8998 29.8746L6.47769 34.3839L11.0556 29.8746L6.47769 25.3652L1.8998 29.8746Z" fill="white"/>
<path id="Vector_7" d="M70.5223 36.2553C70.3133 36.2464 70.1162 36.1574 69.973 36.0073L64.2964 30.4382C64.1548 30.2881 64.0761 30.0908 64.0761 29.8858C64.0761 29.6809 64.1548 29.4836 64.2964 29.3334L69.973 23.7418C70.1254 23.6023 70.3257 23.5248 70.5337 23.5248C70.7418 23.5248 70.9421 23.6023 71.0945 23.7418L76.8169 29.4913C76.9585 29.6414 77.0372 29.8387 77.0372 30.0437C77.0372 30.2486 76.9585 30.4459 76.8169 30.596L71.1403 36.1651C70.9543 36.2739 70.7323 36.3063 70.5223 36.2553ZM65.9444 29.8746L70.5223 34.3839L75.1002 29.8746L70.5223 25.3652L65.9444 29.8746Z" fill="white"/>
<path id="Vector_8" d="M66.5395 67.8209H10.4376C10.2251 67.8209 10.0213 67.7378 9.87108 67.5898C9.72084 67.4418 9.63641 67.241 9.63641 67.0317C9.63641 66.8224 9.72084 66.6217 9.87108 66.4737C10.0213 66.3257 10.2251 66.2426 10.4376 66.2426H66.5166C66.7291 66.2426 66.9329 66.3257 67.0831 66.4737C67.2334 66.6217 67.3178 66.8224 67.3178 67.0317C67.3178 67.2372 67.2366 67.4346 67.0913 67.5819C66.9459 67.7293 66.748 67.815 66.5395 67.8209Z" fill="white"/>
<path id="Vector_9" d="M7.25597 71C6.19758 70.994 5.18461 70.5757 4.43835 69.8364C3.69208 69.0971 3.27318 68.0969 3.2732 67.0543C3.27018 66.5372 3.37099 66.0246 3.56979 65.546C3.76859 65.0675 4.06147 64.6323 4.4316 64.2656C4.80174 63.899 5.24183 63.6079 5.72654 63.4094C6.21125 63.2108 6.73101 63.1086 7.25597 63.1086C8.31833 63.1086 9.3372 63.5243 10.0884 64.2643C10.8396 65.0042 11.2616 66.0078 11.2616 67.0543C11.2616 68.1008 10.8396 69.1044 10.0884 69.8443C9.3372 70.5843 8.31833 71 7.25597 71ZM7.25597 64.6869C6.6489 64.6869 6.0667 64.9244 5.63744 65.3473C5.20818 65.7701 4.96703 66.3436 4.96703 66.9416C4.9515 67.247 4.99923 67.5524 5.10729 67.8391C5.21535 68.1258 5.38148 68.3878 5.5956 68.6093C5.80971 68.8307 6.06733 69.0069 6.35277 69.1272C6.63821 69.2475 6.9455 69.3094 7.25597 69.309C7.56644 69.3094 7.87373 69.2475 8.15917 69.1272C8.44461 69.0069 8.70223 68.8307 8.91634 68.6093C9.13045 68.3878 9.29659 68.1258 9.40465 67.8391C9.51271 67.5524 9.56044 67.247 9.54491 66.9416C9.54491 66.3436 9.30376 65.7701 8.8745 65.3473C8.44524 64.9244 7.86303 64.6869 7.25597 64.6869Z" fill="white"/>
<path id="Vector_10" d="M69.7212 71C68.6628 70.994 67.6498 70.5757 66.9035 69.8364C66.1573 69.0971 65.7384 68.0969 65.7384 67.0543C65.7354 66.5372 65.8362 66.0246 66.035 65.546C66.2338 65.0675 66.5267 64.6323 66.8968 64.2656C67.2669 63.899 67.707 63.6079 68.1917 63.4094C68.6764 63.2108 69.1962 63.1086 69.7212 63.1086C70.7835 63.1086 71.8024 63.5243 72.5536 64.2643C73.3048 65.0042 73.7268 66.0078 73.7268 67.0543C73.7268 68.1008 73.3048 69.1044 72.5536 69.8443C71.8024 70.5843 70.7835 71 69.7212 71ZM69.7212 64.6869C69.1141 64.6869 68.5319 64.9244 68.1026 65.3473C67.6734 65.7701 67.4322 66.3436 67.4322 66.9416C67.4167 67.247 67.4644 67.5524 67.5725 67.8391C67.6805 68.1258 67.8467 68.3878 68.0608 68.6093C68.2749 68.8307 68.5325 69.0069 68.8179 69.1272C69.1034 69.2475 69.4107 69.3094 69.7212 69.309C70.0316 69.3094 70.3389 69.2475 70.6244 69.1272C70.9098 69.0069 71.1674 68.8307 71.3815 68.6093C71.5956 68.3878 71.7618 68.1258 71.8698 67.8391C71.9779 67.5524 72.0256 67.247 72.0101 66.9416C72.0101 66.3436 71.7689 65.7701 71.3397 65.3473C70.9104 64.9244 70.3282 64.6869 69.7212 64.6869Z" fill="white"/>
<path id="Vector_11" d="M42.4828 67.8209C42.2872 67.8229 42.0985 67.7502 41.9563 67.618C41.8808 67.5464 41.8208 67.4606 41.7798 67.3657C41.7388 67.2708 41.7177 67.1687 41.7177 67.0656C41.7177 66.9624 41.7388 66.8603 41.7798 66.7654C41.8208 66.6705 41.8808 66.5847 41.9563 66.5132L69.9729 34.9476C70.1266 34.8016 70.3317 34.7199 70.5452 34.7199C70.7587 34.7199 70.9638 34.8016 71.1174 34.9476C71.2657 35.0989 71.3485 35.301 71.3485 35.5113C71.3485 35.7215 71.2657 35.9236 71.1174 36.0749L43.0779 67.6405C42.9966 67.7093 42.9018 67.7608 42.7994 67.7919C42.697 67.8229 42.5892 67.8328 42.4828 67.8209Z" fill="white"/>
<path id="Vector_12" d="M34.4944 67.8209C34.3812 67.8211 34.2693 67.797 34.1665 67.7503C34.0637 67.7036 33.9725 67.6353 33.8992 67.5503L5.85971 35.9848C5.71146 35.8334 5.6286 35.6314 5.6286 35.4211C5.6286 35.2108 5.71146 35.0087 5.85971 34.8574C6.01332 34.7114 6.21847 34.6298 6.43194 34.6298C6.64542 34.6298 6.85057 34.7114 7.00418 34.8574L35.0208 66.423C35.0963 66.4945 35.1563 66.5803 35.1973 66.6752C35.2383 66.7701 35.2595 66.8722 35.2595 66.9754C35.2595 67.0785 35.2383 67.1806 35.1973 67.2755C35.1563 67.3705 35.0963 67.4562 35.0208 67.5278C34.8909 67.6895 34.702 67.7947 34.4944 67.8209Z" fill="white"/>
<path id="Vector_13" d="M36.0966 9.46968C35.8841 9.46968 35.6803 9.38653 35.5301 9.23854C35.3799 9.09055 35.2955 8.88982 35.2955 8.68053V0.789136C35.2955 0.579843 35.3799 0.379134 35.5301 0.231142C35.6803 0.0831492 35.8841 0 36.0966 0C36.3091 0 36.5128 0.0831492 36.6631 0.231142C36.8133 0.379134 36.8977 0.579843 36.8977 0.789136V8.68053C36.8977 8.88982 36.8133 9.09055 36.6631 9.23854C36.5128 9.38653 36.3091 9.46968 36.0966 9.46968Z" fill="white"/>
<path id="Vector_14" d="M53.7215 5.52399H50.5169V8.68054H53.7215V5.52399Z" fill="white"/>
<path id="Vector_15" d="M58.5282 5.52399H55.3237V8.68054H58.5282V5.52399Z" fill="white"/>
<path id="Vector_16" d="M63.3121 5.52399H60.1076V8.68054H63.3121V5.52399Z" fill="white"/>
<path id="Vector_17" d="M16.8695 5.52399H13.665V8.68054H16.8695V5.52399Z" fill="white"/>
<path id="Vector_18" d="M21.6763 5.52399H18.4717V8.68054H21.6763V5.52399Z" fill="white"/>
<path id="Vector_19" d="M26.4831 5.52399H23.2786V8.68054H26.4831V5.52399Z" fill="white"/>
</g>
<defs>
<clipPath id="clip0_5_379">
<rect width="77" height="71" fill="white"/>
</clipPath>
</defs>
</svg>
