<svg width="80" height="80" viewBox="0 0 80 80" fill="none" xmlns="http://www.w3.org/2000/svg">
<g id="_1" clip-path="url(#clip0_5_430)">
<path id="Vector" d="M43.845 6.81061H34.8612C34.6345 6.81061 34.4172 6.72093 34.257 6.56127C34.0967 6.40162 34.0067 6.18506 34.0067 5.95927C34.0067 5.73349 34.0967 5.51696 34.257 5.35731C34.4172 5.19765 34.6345 5.10797 34.8612 5.10797H43.845C44.0716 5.10797 44.2889 5.19765 44.4492 5.35731C44.6094 5.51696 44.6994 5.73349 44.6994 5.95927C44.6994 6.18506 44.6094 6.40162 44.4492 6.56127C44.2889 6.72093 44.0716 6.81061 43.845 6.81061Z" fill="white"/>
<path id="Vector_2" d="M45.9933 66.3788H21.2145C21.1014 66.3822 20.9888 66.3625 20.8836 66.3209C20.7784 66.2793 20.6828 66.2167 20.6028 66.137C20.5228 66.0572 20.46 65.962 20.4182 65.8572C20.3765 65.7524 20.3567 65.6402 20.3601 65.5275V12.7698C20.3601 12.544 20.4501 12.3275 20.6103 12.1679C20.7706 12.0082 20.9879 11.9185 21.2145 11.9185H58.7854C59.0121 11.9185 59.2294 12.0082 59.3896 12.1679C59.5499 12.3275 59.6399 12.544 59.6399 12.7698V34.9772C59.6399 35.203 59.5499 35.4195 59.3896 35.5792C59.2294 35.7388 59.0121 35.8285 58.7854 35.8285C58.5588 35.8285 58.3415 35.7388 58.1813 35.5792C58.021 35.4195 57.931 35.203 57.931 34.9772V13.6212H22.0689V64.7005H45.9933C46.2199 64.7005 46.4372 64.7902 46.5974 64.9499C46.7577 65.1095 46.8477 65.326 46.8477 65.5518C46.8477 65.6625 46.8255 65.7721 46.7823 65.874C46.739 65.976 46.6757 66.0683 46.596 66.1454C46.5163 66.2225 46.4219 66.2829 46.3184 66.323C46.2149 66.3631 46.1043 66.3821 45.9933 66.3788Z" fill="white"/>
<path id="Vector_3" d="M60.3234 80H19.6765C18.0449 80 16.4801 79.3542 15.3264 78.2047C14.1727 77.0552 13.5245 75.4961 13.5245 73.8705V6.12953C13.5245 4.50388 14.1727 2.94482 15.3264 1.79531C16.4801 0.645805 18.0449 0 19.6765 0H60.3234C61.955 0 63.5198 0.645805 64.6735 1.79531C65.8273 2.94482 66.4754 4.50388 66.4754 6.12953V73.8705C66.4754 75.4961 65.8273 77.0552 64.6735 78.2047C63.5198 79.3542 61.955 80 60.3234 80ZM19.6765 1.67833C18.4981 1.67833 17.368 2.14473 16.5348 2.97493C15.7015 3.80513 15.2334 4.93114 15.2334 6.10522V73.8462C15.2302 74.4284 15.3429 75.0055 15.565 75.5441C15.7872 76.0826 16.1143 76.5719 16.5276 76.9836C16.9408 77.3953 17.4319 77.7213 17.9724 77.9426C18.5129 78.1639 19.0921 78.2763 19.6765 78.2731H60.3234C61.5018 78.2731 62.6319 77.8067 63.4652 76.9765C64.2984 76.1462 64.7665 75.0202 64.7665 73.8462V6.12953C64.7665 4.9532 64.2992 3.8247 63.4667 2.99063C62.6341 2.15656 61.5041 1.68476 60.3234 1.67833H19.6765Z" fill="white"/>
<path id="Vector_4" d="M58.7854 66.3788H21.2145C21.1014 66.3822 20.9888 66.3625 20.8836 66.3209C20.7784 66.2793 20.6828 66.2167 20.6028 66.137C20.5228 66.0572 20.46 65.962 20.4182 65.8572C20.3765 65.7524 20.3567 65.6402 20.3601 65.5275V12.7698C20.3601 12.544 20.4501 12.3275 20.6103 12.1679C20.7706 12.0082 20.9879 11.9185 21.2145 11.9185H58.7854C59.0121 11.9185 59.2294 12.0082 59.3896 12.1679C59.5499 12.3275 59.6399 12.544 59.6399 12.7698V65.5275C59.6399 65.6393 59.6178 65.75 59.5748 65.8533C59.5319 65.9566 59.469 66.0504 59.3896 66.1295C59.3103 66.2085 59.2161 66.2713 59.1124 66.314C59.0088 66.3568 58.8977 66.3788 58.7854 66.3788ZM22.1666 64.6762H58.0287V13.5968H22.0689L22.1666 64.6762Z" fill="white"/>
<path id="Vector_5" d="M51.95 30.6476C51.7234 30.6476 51.506 30.5579 51.3458 30.3982C51.1855 30.2386 51.0955 30.0221 51.0955 29.7963V20.4318H46.7989C46.5723 20.4318 46.355 20.342 46.1947 20.1824C46.0345 20.0227 45.9445 19.8062 45.9445 19.5804C45.9412 19.4666 45.9609 19.3533 46.0024 19.2472C46.0438 19.1411 46.1063 19.0443 46.1859 18.9626C46.2656 18.881 46.3609 18.8161 46.4662 18.7718C46.5715 18.7275 46.6846 18.7047 46.7989 18.7048H51.9255C52.1522 18.7048 52.3695 18.7945 52.5297 18.9541C52.69 19.1138 52.78 19.3303 52.78 19.5561V29.772C52.7832 29.8838 52.7643 29.9951 52.7244 30.0997C52.6844 30.2042 52.6242 30.2999 52.5471 30.3812C52.47 30.4625 52.3776 30.5279 52.2751 30.5736C52.1727 30.6193 52.0622 30.6445 51.95 30.6476Z" fill="white"/>
<path id="Vector_6" d="M76.5334 49.0362C76.3674 49.0363 76.2054 48.9854 76.0696 48.8903C75.9749 48.8311 75.8931 48.7535 75.8293 48.662C75.7654 48.5706 75.7208 48.4673 75.698 48.3583C75.6752 48.2493 75.6747 48.1367 75.6966 48.0275C75.7185 47.9183 75.7623 47.8146 75.8254 47.7227C77.4367 45.2196 78.2847 42.3047 78.2667 39.3311C78.2975 36.3558 77.4484 33.4372 75.8254 30.9395C75.7032 30.748 75.6604 30.5168 75.7059 30.2945C75.7514 30.0721 75.8818 29.8761 76.0696 29.7476C76.2579 29.6272 76.4862 29.5852 76.7054 29.6307C76.9245 29.6762 77.117 29.8055 77.2414 29.9909C79.0617 32.7668 80.0211 36.0153 80 39.3311C80.0078 42.6374 79.0492 45.8744 77.2414 48.647C77.1648 48.7651 77.0601 48.8624 76.9365 48.9303C76.813 48.9982 76.6745 49.0346 76.5334 49.0362Z" fill="white"/>
<path id="Vector_7" d="M72.4565 45.3147C72.3098 45.3115 72.1666 45.2695 72.0415 45.1931C71.8438 45.0805 71.6978 44.8959 71.634 44.6781C71.5703 44.4603 71.5938 44.2264 71.6997 44.0256C72.5176 42.5965 72.9389 40.9762 72.9204 39.3311C72.9428 37.6887 72.5302 36.0695 71.7241 34.6367C71.6631 34.5418 71.6222 34.4355 71.6039 34.3243C71.5856 34.2131 71.5903 34.0993 71.6178 33.9899C71.6452 33.8806 71.6948 33.778 71.7634 33.6885C71.8321 33.5989 71.9184 33.5243 72.0171 33.4692C72.1123 33.4084 72.219 33.3676 72.3307 33.3494C72.4423 33.3312 72.5565 33.3359 72.6662 33.3632C72.7759 33.3905 72.8789 33.4399 72.9688 33.5083C73.0587 33.5768 73.1336 33.6628 73.1889 33.7611C74.1685 35.4538 74.6743 37.3773 74.6537 39.3311C74.6641 41.276 74.1588 43.1891 73.1889 44.8769C73.1161 45.0075 73.0101 45.1167 72.8816 45.1935C72.753 45.2704 72.6064 45.3122 72.4565 45.3147Z" fill="white"/>
<path id="Vector_8" d="M3.46657 49.0361C3.32216 49.0343 3.18029 48.998 3.05286 48.9303C2.92543 48.8626 2.81616 48.7654 2.7342 48.647C0.934944 45.8717 -0.0150631 42.6349 -6.87917e-06 39.3311C0.0212141 36.0149 1.01393 32.777 2.85626 30.0151C2.97682 29.8258 3.16754 29.6914 3.38695 29.6413C3.60636 29.5912 3.83675 29.6294 4.02806 29.7476C4.21815 29.8677 4.35299 30.0577 4.40327 30.2764C4.45355 30.495 4.41522 30.7245 4.2966 30.9151C2.68083 33.4252 1.83263 36.3492 1.85534 39.3311C1.83172 42.3054 2.68019 45.2219 4.2966 47.7227C4.4175 47.9103 4.45966 48.1378 4.41401 48.3561C4.36835 48.5745 4.23855 48.7662 4.05248 48.8902C3.88152 49.0083 3.67319 49.0602 3.46657 49.0361Z" fill="white"/>
<path id="Vector_9" d="M7.54351 45.3147C7.39361 45.3121 7.24703 45.2703 7.11848 45.1935C6.98993 45.1166 6.88393 45.0074 6.81114 44.8768C5.83469 43.1917 5.32893 41.2768 5.34638 39.3311C5.33311 37.389 5.82964 35.4772 6.78673 33.7853C6.89973 33.5884 7.08504 33.4429 7.30362 33.3793C7.52219 33.3158 7.75698 33.3393 7.95853 33.4448C8.0567 33.5003 8.14286 33.5747 8.21203 33.6636C8.2812 33.7524 8.33201 33.8541 8.36152 33.9627C8.39102 34.0712 8.39865 34.1845 8.38395 34.296C8.36925 34.4075 8.33253 34.515 8.27589 34.6123C7.46567 36.0533 7.04506 37.6794 7.05527 39.3311C7.0448 40.9751 7.46557 42.5934 8.27589 44.0255C8.38607 44.2206 8.41711 44.4502 8.36262 44.6674C8.30814 44.8845 8.17227 45.0726 7.98294 45.1931C7.84781 45.2667 7.69743 45.3084 7.54351 45.3147Z" fill="white"/>
<path id="Vector_10" d="M21.2145 66.3789C20.9989 66.38 20.7904 66.302 20.6286 66.1599C20.4721 66.0008 20.3844 65.7868 20.3844 65.564C20.3844 65.3412 20.4721 65.1272 20.6286 64.9681L37.7174 46.239C37.8813 46.0815 38.1001 45.9934 38.3278 45.9934C38.5554 45.9934 38.7742 46.0815 38.9381 46.239C39.0946 46.3981 39.1823 46.6121 39.1823 46.8349C39.1823 47.0577 39.0946 47.2717 38.9381 47.4308L21.8493 66.1599C21.7646 66.2385 21.6644 66.2985 21.5551 66.3362C21.4458 66.3739 21.3298 66.3884 21.2145 66.3789Z" fill="white"/>
<path id="Vector_11" d="M37.6686 56.1629C37.5611 56.1686 37.4535 56.1522 37.3527 56.1145C37.2519 56.0768 37.1599 56.0188 37.0827 55.944C36.9261 55.7849 36.8384 55.571 36.8384 55.3481C36.8384 55.1253 36.9261 54.9113 37.0827 54.7522L47.9463 42.8337C48.1101 42.6761 48.3289 42.5881 48.5566 42.5881C48.7843 42.5881 49.0031 42.6761 49.1669 42.8337C49.3235 42.9928 49.4112 43.2067 49.4112 43.4296C49.4112 43.6524 49.3235 43.8664 49.1669 44.0255L38.3033 55.944C38.2187 56.0226 38.1185 56.0826 38.0092 56.1203C37.8999 56.158 37.7839 56.1725 37.6686 56.1629Z" fill="white"/>
<path id="Vector_12" d="M39.9878 27.2423H28.0256C27.799 27.2423 27.5817 27.1526 27.4215 26.993C27.2612 26.8333 27.1712 26.6168 27.1712 26.391C27.1712 26.1652 27.2612 25.9487 27.4215 25.789C27.5817 25.6294 27.799 25.5397 28.0256 25.5397H39.9878C40.2144 25.5397 40.4318 25.6294 40.592 25.789C40.7522 25.9487 40.8422 26.1652 40.8422 26.391C40.8422 26.6168 40.7522 26.8333 40.592 26.993C40.4318 27.1526 40.2144 27.2423 39.9878 27.2423Z" fill="white"/>
<path id="Vector_13" d="M39.9878 32.3503H28.0256C27.799 32.3503 27.5817 32.2606 27.4215 32.1009C27.2612 31.9413 27.1712 31.7247 27.1712 31.4989C27.1712 31.2732 27.2612 31.0566 27.4215 30.897C27.5817 30.7373 27.799 30.6476 28.0256 30.6476H39.9878C40.2144 30.6476 40.4318 30.7373 40.592 30.897C40.7522 31.0566 40.8422 31.2732 40.8422 31.4989C40.8422 31.7247 40.7522 31.9413 40.592 32.1009C40.4318 32.2606 40.2144 32.3503 39.9878 32.3503Z" fill="white"/>
<path id="Vector_14" d="M39.9878 68.6652C40.4098 68.6652 40.8277 68.7485 41.2173 68.9101C41.6069 69.0718 41.9605 69.3086 42.2578 69.6071C42.5551 69.9055 42.7902 70.2597 42.9494 70.6491C43.1087 71.0385 43.189 71.4555 43.1858 71.8759C43.1858 72.721 42.8489 73.5315 42.2491 74.1291C41.6494 74.7266 40.8359 75.0623 39.9878 75.0623C39.5678 75.0623 39.1519 74.9799 38.7639 74.8198C38.3759 74.6596 38.0234 74.4249 37.7264 74.1291C37.4295 73.8332 37.1939 73.4819 37.0332 73.0953C36.8724 72.7087 36.7897 72.2944 36.7897 71.8759C36.7897 71.0286 37.1259 70.2156 37.7249 69.6142C38.324 69.0127 39.1374 68.6716 39.9878 68.6652Z" fill="white"/>
</g>
<defs>
<clipPath id="clip0_5_430">
<rect width="80" height="80" fill="white"/>
</clipPath>
</defs>
</svg>
