<svg width="81" height="82" viewBox="0 0 81 82" fill="none" xmlns="http://www.w3.org/2000/svg">
<g id="_1" clip-path="url(#clip0_5_445)">
<path id="Vector" d="M80.138 81.9751H0.861964C0.633357 81.9751 0.414107 81.8831 0.252457 81.7195C0.0908076 81.5558 3.8147e-06 81.3339 3.8147e-06 81.1025V0.872607C3.8147e-06 0.641177 0.0908076 0.419225 0.252457 0.25558C0.414107 0.0919343 0.633357 0 0.861964 0H80.138C80.3666 0 80.5859 0.0919343 80.7475 0.25558C80.9092 0.419225 81 0.641177 81 0.872607V81.1025C81 81.3339 80.9092 81.5558 80.7475 81.7195C80.5859 81.8831 80.3666 81.9751 80.138 81.9751ZM1.72392 80.2299H79.2761V1.82H1.72392V80.2299Z" fill="white"/>
<path id="Vector_2" d="M80.138 15.682H0.861968C0.633361 15.682 0.414111 15.59 0.252461 15.4264C0.0908114 15.2628 7.62939e-06 15.0408 7.62939e-06 14.8094C7.62939e-06 14.5779 0.0908114 14.356 0.252461 14.1923C0.414111 14.0287 0.633361 13.9368 0.861968 13.9368H80.138C80.3666 13.9368 80.5859 14.0287 80.7475 14.1923C80.9092 14.356 81 14.5779 81 14.8094C81 15.0408 80.9092 15.2628 80.7475 15.4264C80.5859 15.59 80.3666 15.682 80.138 15.682Z" fill="white"/>
<path id="Vector_3" d="M24.997 15.682C24.8828 15.6854 24.7692 15.6652 24.6631 15.6226C24.557 15.58 24.4606 15.5158 24.3799 15.4341C24.2991 15.3524 24.2358 15.2548 24.1937 15.1473C24.1515 15.0399 24.1316 14.9249 24.135 14.8094V0.872618C24.1316 0.75709 24.1515 0.642073 24.1937 0.534643C24.2358 0.427213 24.2991 0.329639 24.3799 0.247912C24.4606 0.166184 24.557 0.102032 24.6631 0.059401C24.7692 0.0167699 24.8828 -0.00343916 24.997 1.17726e-05C25.2256 1.17726e-05 25.4448 0.0919461 25.6065 0.255591C25.7681 0.419237 25.8589 0.641189 25.8589 0.872618V14.8094C25.8589 15.0408 25.7681 15.2628 25.6065 15.4264C25.4448 15.59 25.2256 15.682 24.997 15.682Z" fill="white"/>
<path id="Vector_4" d="M80.138 8.70115H43.9355C43.7069 8.70115 43.4877 8.60921 43.326 8.44557C43.1644 8.28192 43.0736 8.05997 43.0736 7.82854C43.0736 7.71395 43.0959 7.60048 43.1392 7.49461C43.1825 7.38874 43.246 7.29254 43.326 7.21151C43.4061 7.13048 43.5011 7.06621 43.6057 7.02235C43.7103 6.9785 43.8223 6.95593 43.9355 6.95593H80.138C80.2512 6.95593 80.3633 6.9785 80.4679 7.02235C80.5725 7.06621 80.6675 7.13048 80.7475 7.21151C80.8276 7.29254 80.8911 7.38874 80.9344 7.49461C80.9777 7.60048 81 7.71395 81 7.82854C81 8.05997 80.9092 8.28192 80.7475 8.44557C80.5859 8.60921 80.3666 8.70115 80.138 8.70115Z" fill="white"/>
<path id="Vector_5" d="M80.138 24.4081H14.6534C14.4248 24.4081 14.2055 24.3161 14.0439 24.1525C13.8822 23.9888 13.7914 23.7669 13.7914 23.5354C13.7914 23.304 13.8822 23.0821 14.0439 22.9184C14.2055 22.7548 14.4248 22.6628 14.6534 22.6628H80.138C80.2512 22.6628 80.3633 22.6854 80.4679 22.7293C80.5725 22.7731 80.6675 22.8374 80.7475 22.9184C80.8276 22.9995 80.8911 23.0956 80.9344 23.2015C80.9777 23.3074 81 23.4209 81 23.5354C81 23.7669 80.9092 23.9888 80.7475 24.1525C80.5859 24.3161 80.3666 24.4081 80.138 24.4081Z" fill="white"/>
<path id="Vector_6" d="M9.48161 24.4081C9.36781 24.4097 9.25481 24.3885 9.14913 24.3457C9.04346 24.3029 8.94721 24.2394 8.86592 24.1587C8.71334 23.9872 8.62605 23.7662 8.61965 23.5354C8.62605 23.3047 8.71334 23.0837 8.86592 22.9122C9.03541 22.7577 9.25365 22.6693 9.48161 22.6628C9.70957 22.6693 9.92782 22.7577 10.0973 22.9122C10.2499 23.0837 10.3372 23.3047 10.3436 23.5354C10.3372 23.7662 10.2499 23.9872 10.0973 24.1587C10.016 24.2394 9.91976 24.3029 9.81409 24.3457C9.70842 24.3885 9.59541 24.4097 9.48161 24.4081Z" fill="white"/>
<path id="Vector_7" d="M38.7638 8.70115C38.6533 8.70539 38.5432 8.6853 38.4412 8.64225C38.3391 8.5992 38.2475 8.53423 38.1727 8.45183C38.0862 8.37353 38.0173 8.2774 37.9706 8.16989C37.9238 8.06238 37.9004 7.94599 37.9018 7.82854C37.9023 7.71503 37.9267 7.60295 37.9735 7.49976C38.0202 7.39658 38.0881 7.30467 38.1727 7.23018C38.2463 7.14453 38.3371 7.07577 38.439 7.02847C38.5409 6.98118 38.6516 6.95645 38.7638 6.95593C38.8798 6.9545 38.9947 6.97824 39.1009 7.02555C39.2071 7.07285 39.3021 7.14263 39.3795 7.23018C39.4609 7.30592 39.525 7.39865 39.5676 7.50196C39.6101 7.60527 39.6299 7.7167 39.6257 7.82854C39.6319 7.94431 39.613 8.06004 39.5705 8.16768C39.528 8.27533 39.4628 8.37229 39.3795 8.45183C39.3009 8.53618 39.2051 8.60218 39.0988 8.64523C38.9924 8.68829 38.8781 8.70737 38.7638 8.70115Z" fill="white"/>
<path id="Vector_8" d="M14.6534 74.9942H14.4564C14.2379 74.9352 14.0499 74.794 13.9308 74.5994C13.8118 74.4047 13.7707 74.1714 13.816 73.9471C15.5676 64.6524 19.504 55.9213 25.2925 48.4919C29.5615 43.2757 35.0106 39.1791 41.1773 36.5497C47.5121 33.8088 54.4016 32.6378 61.2733 33.1341C61.4999 33.1652 61.7058 33.2838 61.848 33.4649C61.9903 33.6461 62.0579 33.8759 62.0368 34.1064C62.006 34.3357 61.8889 34.5442 61.7099 34.6882C61.531 34.8322 61.304 34.9007 61.0763 34.8793C54.4746 34.4319 47.8614 35.5591 41.7683 38.1702C28.2478 44.0042 19.4065 56.1459 15.4907 74.3211C15.4464 74.5123 15.3396 74.6828 15.1876 74.8049C15.0357 74.9271 14.8474 74.9938 14.6534 74.9942Z" fill="white"/>
<path id="Vector_9" d="M57.924 39.4667C57.7839 39.4678 57.6456 39.4343 57.5212 39.3692C57.3967 39.304 57.2899 39.2091 57.2098 39.0927C57.145 39 57.0992 38.8951 57.0753 38.7841C57.0513 38.6732 57.0496 38.5585 57.0703 38.4468C57.091 38.3352 57.1336 38.2289 57.1956 38.1343C57.2577 38.0397 57.3379 37.9586 57.4315 37.896L61.8398 34.8294L58.8106 30.3417C58.7458 30.249 58.7 30.1441 58.6761 30.0331C58.6521 29.9222 58.6504 29.8075 58.6711 29.6958C58.6918 29.5842 58.7344 29.4779 58.7964 29.3833C58.8585 29.2887 58.9387 29.2076 59.0322 29.145C59.1258 29.0788 59.2314 29.032 59.3429 29.0074C59.4544 28.9829 59.5697 28.981 59.6819 29.0018C59.7942 29.0227 59.9012 29.066 59.9969 29.1291C60.0925 29.1921 60.1748 29.2738 60.239 29.3694L63.7361 34.5552C63.8085 34.6443 63.8594 34.7493 63.8851 34.8617C63.9107 34.9742 63.9103 35.0911 63.8839 35.2034C63.8619 35.3153 63.8179 35.4215 63.7544 35.5158C63.6909 35.61 63.6093 35.6903 63.5144 35.7519L58.4165 39.2174C58.2799 39.3474 58.1087 39.434 57.924 39.4667Z" fill="white"/>
<path id="Vector_10" d="M80.138 73.249H26.7209C26.6089 73.2523 26.4973 73.2329 26.3929 73.1918C26.2884 73.1507 26.1932 73.0887 26.1128 73.0097C26.0324 72.9306 25.9685 72.8361 25.9249 72.7316C25.8813 72.6271 25.8589 72.5148 25.8589 72.4013C25.8555 72.2858 25.8755 72.1708 25.9176 72.0633C25.9597 71.9559 26.0231 71.8583 26.1038 71.7766C26.1845 71.6949 26.2809 71.6307 26.387 71.5881C26.4932 71.5455 26.6068 71.5252 26.7209 71.5287H80.138C80.3666 71.5287 80.5859 71.6206 80.7475 71.7843C80.9092 71.9479 81 72.1699 81 72.4013C80.9936 72.6284 80.8999 72.844 80.739 73.0023C80.578 73.1606 80.3624 73.2491 80.138 73.249Z" fill="white"/>
<path id="Vector_11" d="M37.163 66.2931C36.0199 66.2931 34.9237 65.8334 34.1155 65.0152C33.3072 64.1969 32.8531 63.0872 32.8531 61.93C32.8531 60.7729 33.3072 59.6631 34.1155 58.8449C34.9237 58.0267 36.0199 57.567 37.163 57.567C37.7278 57.567 38.287 57.68 38.8086 57.8996C39.3301 58.1192 39.8036 58.4409 40.2018 58.8464C40.6 59.2519 40.9152 59.7331 41.1291 60.2623C41.343 60.7915 41.4514 61.3583 41.4482 61.93C41.4482 63.0829 40.9975 64.1889 40.1946 65.0064C39.3916 65.8239 38.3017 66.2865 37.163 66.2931ZM37.163 59.3122C36.5098 59.3122 35.8834 59.5749 35.4215 60.0425C34.9597 60.51 34.7002 61.1442 34.7002 61.8054C34.7002 62.4666 34.9597 63.1008 35.4215 63.5683C35.8834 64.0359 36.5098 64.2985 37.163 64.2985C37.8161 64.2985 38.4425 64.0359 38.9044 63.5683C39.3663 63.1008 39.6257 62.4666 39.6257 61.8054C39.6257 61.1442 39.3663 60.51 38.9044 60.0425C38.4425 59.5749 37.8161 59.3122 37.163 59.3122Z" fill="white"/>
<path id="Vector_12" d="M66.3466 54.1764C65.2056 54.1698 64.1131 53.7081 63.3063 52.8912C62.4994 52.0744 62.0433 50.9685 62.0368 49.8133C62.0368 48.6562 62.4909 47.5464 63.2991 46.7282C64.1074 45.91 65.2036 45.4503 66.3466 45.4503C67.4896 45.4503 68.5859 45.91 69.3941 46.7282C70.2024 47.5464 70.6564 48.6562 70.6564 49.8133C70.6564 50.9705 70.2024 52.0802 69.3941 52.8985C68.5859 53.7167 67.4896 54.1764 66.3466 54.1764ZM66.3466 47.1955C66.0126 47.1951 65.6819 47.2635 65.3748 47.3965C65.0677 47.5295 64.7905 47.7244 64.5602 47.9693C64.3298 48.2141 64.151 48.5039 64.0348 48.8209C63.9185 49.138 63.8672 49.4756 63.8839 49.8133C63.8839 50.4746 64.1433 51.1087 64.6052 51.5763C65.067 52.0438 65.6934 52.3065 66.3466 52.3065C66.6802 52.3234 67.0138 52.2714 67.3269 52.1537C67.6401 52.036 67.9263 51.8551 68.1682 51.6219C68.4101 51.3886 68.6026 51.108 68.734 50.7971C68.8654 50.4862 68.9329 50.1515 68.9325 49.8133C68.9649 49.4568 68.921 49.0974 68.8038 48.7596C68.6867 48.4218 68.4991 48.1135 68.2537 47.8556C68.0084 47.5978 67.711 47.3965 67.382 47.2653C67.0529 47.1342 66.6997 47.0764 66.3466 47.0958V47.1955Z" fill="white"/>
<path id="Vector_13" d="M14.6534 40.1149C13.5104 40.1149 12.4141 39.6552 11.6059 38.837C10.7976 38.0188 10.3436 36.909 10.3436 35.7519C10.3436 34.5947 10.7976 33.485 11.6059 32.6668C12.4141 31.8485 13.5104 31.3889 14.6534 31.3889C15.7944 31.3954 16.8869 31.8572 17.6937 32.674C18.5006 33.4908 18.9567 34.5968 18.9632 35.7519C18.9632 36.909 18.5091 38.0188 17.7009 38.837C16.8926 39.6552 15.7964 40.1149 14.6534 40.1149ZM14.6534 33.1341C14.0002 33.1341 13.3738 33.3967 12.912 33.8643C12.4501 34.3319 12.1906 34.966 12.1906 35.6272C12.1906 36.2885 12.4501 36.9226 12.912 37.3901C13.3738 37.8577 14.0002 38.1204 14.6534 38.1204C15.3066 38.1204 15.933 37.8577 16.3948 37.3901C16.8567 36.9226 17.1161 36.2885 17.1161 35.6272C17.1161 34.966 16.8567 34.3319 16.3948 33.8643C15.933 33.3967 15.3066 33.1341 14.6534 33.1341Z" fill="white"/>
<path id="Vector_14" d="M9.4816 6.10822H6.03375V9.59864H9.4816V6.10822Z" fill="white"/>
<path id="Vector_15" d="M14.6534 6.10822H11.2055V9.59864H14.6534V6.10822Z" fill="white"/>
<path id="Vector_16" d="M19.8252 6.10822H16.3773V9.59864H19.8252V6.10822Z" fill="white"/>
</g>
<defs>
<clipPath id="clip0_5_445">
<rect width="81" height="82" fill="white"/>
</clipPath>
</defs>
</svg>
