<svg width="81" height="85" viewBox="0 0 81 85" fill="none" xmlns="http://www.w3.org/2000/svg">
<g id="_1" clip-path="url(#clip0_5_462)">
<path id="Vector" d="M52.731 85H25.1051C24.9635 84.995 24.825 84.9575 24.7001 84.8903C24.5753 84.8231 24.4674 84.728 24.3849 84.6123C24.3149 84.4905 24.2781 84.3524 24.2781 84.2118C24.2781 84.0711 24.3149 83.933 24.3849 83.8112L29.5294 66.47C29.5889 66.2836 29.7055 66.1207 29.8625 66.0047C30.0196 65.8887 30.209 65.8255 30.4039 65.8239H47.6637C47.8552 65.8269 48.0407 65.8912 48.1934 66.0074C48.346 66.1236 48.4578 66.2856 48.5125 66.47L53.657 83.7595C53.6713 83.871 53.6713 83.9839 53.657 84.0955C53.6571 84.2164 53.633 84.3362 53.5861 84.4477C53.5393 84.5591 53.4707 84.66 53.3843 84.7444C53.298 84.8287 53.1957 84.8948 53.0835 84.9387C52.9712 84.9826 52.8514 85.0035 52.731 85ZM26.3141 83.1909H51.5221L46.892 67.6847H30.9698L26.3141 83.1909Z" fill="white"/>
<path id="Vector_2" d="M61.3738 85H16.4881C16.2493 85 16.0203 84.9047 15.8515 84.7351C15.6827 84.5654 15.5878 84.3354 15.5878 84.0955C15.5842 83.9757 15.6051 83.8565 15.6491 83.7451C15.6931 83.6338 15.7592 83.5326 15.8436 83.4479C15.9279 83.3632 16.0286 83.2967 16.1394 83.2525C16.2502 83.2083 16.3689 83.1874 16.4881 83.1909H61.3738C61.6125 83.1909 61.8415 83.2863 62.0104 83.4559C62.1792 83.6255 62.2741 83.8556 62.2741 84.0955C62.2741 84.3354 62.1792 84.5654 62.0104 84.7351C61.8415 84.9047 61.6125 85 61.3738 85Z" fill="white"/>
<path id="Vector_3" d="M13.0156 55.5123H0.95173C0.712959 55.5123 0.483961 55.417 0.315125 55.2474C0.146289 55.0778 0.0514382 54.8477 0.0514382 54.6078C0.0478778 54.488 0.0687328 54.3688 0.112716 54.2575C0.1567 54.1461 0.222887 54.0449 0.307207 53.9602C0.391526 53.8755 0.492201 53.809 0.603039 53.7648C0.713877 53.7206 0.832537 53.6997 0.95173 53.7033H13.0156C13.1348 53.6997 13.2534 53.7206 13.3642 53.7648C13.4751 53.809 13.5758 53.8755 13.6601 53.9602C13.7444 54.0449 13.8106 54.1461 13.8546 54.2575C13.8986 54.3688 13.9194 54.488 13.9158 54.6078C13.9158 54.8477 13.821 55.0778 13.6522 55.2474C13.4833 55.417 13.2543 55.5123 13.0156 55.5123Z" fill="white"/>
<path id="Vector_4" d="M78.6593 55.5123H20.7066C20.4678 55.5123 20.2388 55.417 20.07 55.2474C19.9011 55.0778 19.8063 54.8477 19.8063 54.6078C19.8027 54.488 19.8236 54.3688 19.8676 54.2575C19.9115 54.1461 19.9777 54.0449 20.0621 53.9602C20.1464 53.8755 20.247 53.809 20.3579 53.7648C20.4687 53.7206 20.5874 53.6997 20.7066 53.7033H78.6593C78.898 53.7033 79.127 53.7986 79.2959 53.9682C79.4647 54.1378 79.5595 54.3679 79.5595 54.6078C79.5595 54.8477 79.4647 55.0778 79.2959 55.2474C79.127 55.417 78.898 55.5123 78.6593 55.5123Z" fill="white"/>
<path id="Vector_5" d="M71.0969 54.246C70.8581 54.246 70.6291 54.1507 70.4603 53.9811C70.2914 53.8114 70.1966 53.5814 70.1966 53.3415V16.2816H56.6923C56.4535 16.2816 56.2245 16.1863 56.0557 16.0166C55.8869 15.847 55.792 15.6169 55.792 15.377C55.792 15.1371 55.8869 14.9071 56.0557 14.7374C56.2245 14.5678 56.4535 14.4725 56.6923 14.4725H71.0969C71.2151 14.4725 71.3322 14.4959 71.4414 14.5414C71.5506 14.5868 71.6499 14.6534 71.7335 14.7374C71.8171 14.8214 71.8834 14.9211 71.9286 15.0309C71.9739 15.1406 71.9971 15.2582 71.9971 15.377V53.3415C71.9971 53.4603 71.9739 53.5779 71.9286 53.6876C71.8834 53.7973 71.8171 53.8971 71.7335 53.9811C71.6499 54.065 71.5506 54.1317 71.4414 54.1771C71.3322 54.2226 71.2151 54.246 71.0969 54.246Z" fill="white"/>
<path id="Vector_6" d="M8.10257 54.246C7.8638 54.246 7.63481 54.1507 7.46598 53.9811C7.29714 53.8114 7.20229 53.5814 7.20229 53.3415V15.377C7.20229 15.1371 7.29714 14.9071 7.46598 14.7374C7.63481 14.5678 7.8638 14.4725 8.10257 14.4725H22.5071C22.7459 14.4725 22.9749 14.5678 23.1437 14.7374C23.3126 14.9071 23.4074 15.1371 23.4074 15.377C23.4074 15.6169 23.3126 15.847 23.1437 16.0166C22.9749 16.1863 22.7459 16.2816 22.5071 16.2816H9.00285V53.3415C9.00285 53.4603 8.97957 53.5779 8.93432 53.6876C8.88908 53.7973 8.82277 53.8971 8.73917 53.9811C8.65557 54.065 8.55632 54.1317 8.44709 54.1771C8.33786 54.2226 8.2208 54.246 8.10257 54.246Z" fill="white"/>
<path id="Vector_7" d="M18.906 48.8188H15.3049C15.0781 48.8341 14.854 48.7627 14.6775 48.6189C14.5009 48.4751 14.3851 48.2695 14.3531 48.0435V44.4253C14.3531 44.1854 14.448 43.9554 14.6168 43.7858C14.7856 43.6161 15.0146 43.5208 15.2534 43.5208C15.4922 43.5208 15.7212 43.6161 15.89 43.7858C16.0588 43.9554 16.1537 44.1854 16.1537 44.4253V47.0097H18.8546C19.0933 47.0097 19.3223 47.105 19.4912 47.2747C19.66 47.4443 19.7548 47.6743 19.7548 47.9142C19.7552 48.1454 19.6675 48.368 19.5096 48.5362C19.3517 48.7045 19.1357 48.8056 18.906 48.8188Z" fill="white"/>
<path id="Vector_8" d="M63.8946 48.8188H60.2934C60.1752 48.8188 60.0581 48.7954 59.9489 48.7499C59.8397 48.7045 59.7404 48.6378 59.6568 48.5538C59.5732 48.4699 59.5069 48.3701 59.4617 48.2604C59.4164 48.1507 59.3931 48.033 59.3931 47.9142C59.3931 47.7955 59.4164 47.6778 59.4617 47.5681C59.5069 47.4584 59.5732 47.3586 59.6568 47.2747C59.7404 47.1907 59.8397 47.124 59.9489 47.0786C60.0581 47.0331 60.1752 47.0097 60.2934 47.0097H62.8657V44.4253C62.8657 44.3066 62.889 44.1889 62.9342 44.0792C62.9794 43.9695 63.0458 43.8697 63.1294 43.7858C63.213 43.7018 63.3122 43.6351 63.4214 43.5897C63.5307 43.5442 63.6477 43.5208 63.766 43.5208C64.0047 43.5208 64.2337 43.6161 64.4026 43.7858C64.5714 43.9554 64.6662 44.1854 64.6662 44.4253V48.0435C64.6399 48.2398 64.5501 48.4219 64.4107 48.562C64.2712 48.702 64.0899 48.7923 63.8946 48.8188Z" fill="white"/>
<path id="Vector_9" d="M17.1054 79.5728H0.900288C0.661517 79.5728 0.432529 79.4775 0.263693 79.3079C0.0948566 79.1383 -3.8147e-06 78.9082 -3.8147e-06 78.6683C-3.8147e-06 78.4284 0.0948566 78.1983 0.263693 78.0287C0.432529 77.8591 0.661517 77.7638 0.900288 77.7638H17.1054C17.3442 77.7638 17.5732 77.8591 17.742 78.0287C17.9109 78.1983 18.0057 78.4284 18.0057 78.6683C18.0057 78.9082 17.9109 79.1383 17.742 79.3079C17.5732 79.4775 17.3442 79.5728 17.1054 79.5728Z" fill="white"/>
<path id="Vector_10" d="M8.10257 74.1456H0.900288C0.661517 74.1456 0.432529 74.0503 0.263693 73.8807C0.0948566 73.7111 -3.8147e-06 73.481 -3.8147e-06 73.2411C-3.8147e-06 73.0012 0.0948566 72.7711 0.263693 72.6015C0.432529 72.4319 0.661517 72.3366 0.900288 72.3366H8.10257C8.34134 72.3366 8.57033 72.4319 8.73917 72.6015C8.908 72.7711 9.00285 73.0012 9.00285 73.2411C9.00285 73.481 8.908 73.7111 8.73917 73.8807C8.57033 74.0503 8.34134 74.1456 8.10257 74.1456Z" fill="white"/>
<path id="Vector_11" d="M80.0997 79.5728H63.8946C63.6558 79.5728 63.4268 79.4775 63.258 79.3079C63.0891 79.1383 62.9943 78.9082 62.9943 78.6683C62.9943 78.4284 63.0891 78.1983 63.258 78.0287C63.4268 77.8591 63.6558 77.7638 63.8946 77.7638H80.0997C80.3385 77.7638 80.5675 77.8591 80.7363 78.0287C80.9052 78.1983 81 78.4284 81 78.6683C81 78.9082 80.9052 79.1383 80.7363 79.3079C80.5675 79.4775 80.3385 79.5728 80.0997 79.5728Z" fill="white"/>
<path id="Vector_12" d="M80.0997 74.1456H72.8974C72.6587 74.1456 72.4297 74.0503 72.2608 73.8807C72.092 73.7111 71.9971 73.481 71.9971 73.2411C71.9971 73.0012 72.092 72.7711 72.2608 72.6015C72.4297 72.4319 72.6587 72.3366 72.8974 72.3366H80.0997C80.3385 72.3366 80.5675 72.4319 80.7363 72.6015C80.9051 72.7711 81 73.0012 81 73.2411C81 73.481 80.9051 73.7111 80.7363 73.8807C80.5675 74.0503 80.3385 74.1456 80.0997 74.1456Z" fill="white"/>
<path id="Vector_13" d="M74.3636 67.633H5.19593C3.83153 67.633 2.52301 67.0885 1.55823 66.1191C0.593454 65.1498 0.0514412 63.8351 0.0514412 62.4643V12.0432C0.0514412 10.6723 0.593454 9.35764 1.55823 8.38831C2.52301 7.41898 3.83153 6.87442 5.19593 6.87442H22.5071C22.7459 6.87442 22.9749 6.96973 23.1437 7.13936C23.3126 7.30899 23.4074 7.53905 23.4074 7.77895V39.7735H55.792C55.792 27.2393 55.792 9.12283 55.792 7.90817C55.7408 7.74853 55.7408 7.57678 55.792 7.41714C55.858 7.25131 55.9714 7.10883 56.1179 7.00765C56.2644 6.90647 56.4374 6.85111 56.6151 6.84857H74.2864C75.6508 6.84857 76.9594 7.39315 77.9241 8.36248C78.8889 9.33181 79.4309 10.6465 79.4309 12.0173V62.4643C79.4311 63.8218 78.8997 65.1249 77.9515 66.092C77.0034 67.0591 75.7146 67.6127 74.3636 67.633ZM5.19593 8.65764C4.75342 8.65764 4.31526 8.74521 3.90643 8.91535C3.49761 9.08549 3.12614 9.33487 2.81324 9.64924C2.50034 9.96362 2.25213 10.3368 2.08279 10.7476C1.91345 11.1583 1.8263 11.5986 1.8263 12.0432V62.4643C1.83308 63.3577 2.19109 64.2122 2.82229 64.8415C3.45348 65.4708 4.30669 65.824 5.19593 65.8239H74.3636C75.2528 65.824 76.1061 65.4708 76.7373 64.8415C77.3685 64.2122 77.7265 63.3577 77.7332 62.4643V12.0432C77.7332 11.1453 77.3782 10.2842 76.7463 9.64924C76.1144 9.01433 75.2573 8.65764 74.3636 8.65764H57.6183V24.1639C57.6183 32.2788 57.6183 40.4971 57.6183 40.5746C57.6218 40.6944 57.601 40.8136 57.557 40.925C57.513 41.0363 57.4468 41.1375 57.3625 41.2222C57.2782 41.3069 57.1775 41.3734 57.0667 41.4176C56.9559 41.4618 56.8372 41.4827 56.718 41.4792H22.5071C22.3879 41.4827 22.2693 41.4618 22.1584 41.4176C22.0476 41.3734 21.9469 41.3069 21.8626 41.2222C21.7783 41.1375 21.7121 41.0363 21.6681 40.925C21.6242 40.8136 21.6033 40.6944 21.6069 40.5746V8.65764H5.19593Z" fill="white"/>
<path id="Vector_14" d="M56.6923 41.5826H22.5071C22.3879 41.5861 22.2693 41.5652 22.1584 41.521C22.0476 41.4768 21.9469 41.4103 21.8626 41.3256C21.7783 41.2409 21.7121 41.1397 21.6681 41.0284C21.6242 40.917 21.6033 40.7978 21.6069 40.678V0.90453C21.6033 0.784775 21.6242 0.665555 21.6681 0.554194C21.7121 0.442834 21.7783 0.341694 21.8626 0.256977C21.9469 0.17226 22.0476 0.105761 22.1584 0.0615701C22.2693 0.0173793 22.3879 -0.00357403 22.5071 3.15148e-06H49.49C49.6094 -0.00645058 49.7288 0.0133295 49.8399 0.0579618C49.951 0.102594 50.051 0.171002 50.1331 0.258436L57.3353 7.49468C57.4224 7.57712 57.4905 7.67765 57.5349 7.78923C57.5793 7.90081 57.599 8.02077 57.5926 8.14077V40.678C57.5961 40.7978 57.5753 40.917 57.5313 41.0284C57.4873 41.1397 57.4211 41.2409 57.3368 41.3256C57.2525 41.4103 57.1518 41.4768 57.041 41.521C56.9301 41.5652 56.8115 41.5861 56.6923 41.5826ZM23.4074 39.7735H55.792V8.50258L49.1299 1.80907H23.4074V39.7735Z" fill="white"/>
<path id="Vector_15" d="M56.6923 9.04531H49.49C49.2512 9.04531 49.0222 8.95 48.8534 8.78037C48.6846 8.61074 48.5897 8.38066 48.5897 8.14076V0.904521C48.5897 0.664625 48.6846 0.434557 48.8534 0.264925C49.0222 0.0952928 49.2512 -4.99139e-06 49.49 -4.99139e-06C49.6092 -0.00358217 49.7278 0.0173711 49.8387 0.0615619C49.9495 0.105753 50.0502 0.172252 50.1345 0.256969C50.2188 0.341686 50.285 0.442826 50.329 0.554186C50.373 0.665547 50.3938 0.784767 50.3903 0.904521V7.23624H56.6923C56.8115 7.23266 56.9301 7.2536 57.041 7.29779C57.1518 7.34198 57.2525 7.40849 57.3368 7.49321C57.4211 7.57793 57.4873 7.67907 57.5313 7.79043C57.5753 7.90179 57.5961 8.02101 57.5926 8.14076C57.5926 8.25955 57.5693 8.37717 57.524 8.48692C57.4788 8.59666 57.4125 8.69637 57.3289 8.78037C57.2453 8.86436 57.146 8.93098 57.0368 8.97644C56.9276 9.02189 56.8105 9.04531 56.6923 9.04531Z" fill="white"/>
<path id="Vector_16" d="M51.2906 21.6829H27.9089C27.7919 21.6864 27.6754 21.6662 27.5663 21.6236C27.4572 21.581 27.3577 21.5168 27.2738 21.4349C27.1898 21.3529 27.1231 21.2549 27.0775 21.1465C27.032 21.0382 27.0085 20.9218 27.0086 20.8042V6.33172C27.005 6.21196 27.0259 6.09274 27.0698 5.98138C27.1138 5.87002 27.18 5.76887 27.2643 5.68415C27.3487 5.59944 27.4493 5.53294 27.5602 5.48875C27.671 5.44456 27.7897 5.4236 27.9089 5.42718H44.0883C44.2075 5.4236 44.3261 5.44456 44.437 5.48875C44.5478 5.53294 44.6485 5.59944 44.7328 5.68415C44.8171 5.76887 44.8833 5.87002 44.9273 5.98138C44.9713 6.09274 44.9921 6.21196 44.9886 6.33172C44.9886 6.4505 44.9653 6.56812 44.92 6.67786C44.8748 6.7876 44.8085 6.88733 44.7249 6.97132C44.6413 7.05532 44.542 7.12193 44.4328 7.16739C44.3236 7.21285 44.2065 7.23624 44.0883 7.23624H28.8091V19.8997H50.3646V13.568C50.3646 13.3281 50.4594 13.098 50.6282 12.9284C50.7971 12.7587 51.0261 12.6634 51.2648 12.6634C51.384 12.6598 51.5027 12.6808 51.6135 12.725C51.7244 12.7692 51.825 12.8357 51.9094 12.9204C51.9937 13.0051 52.0599 13.1063 52.1039 13.2176C52.1478 13.329 52.1687 13.4482 52.1651 13.568V20.8042C52.1651 21.0372 52.073 21.2607 51.909 21.4255C51.745 21.5903 51.5225 21.6829 51.2906 21.6829Z" fill="white"/>
<path id="Vector_17" d="M51.2906 28.9191H27.9089C27.7897 28.9227 27.671 28.9018 27.5602 28.8576C27.4493 28.8134 27.3487 28.7469 27.2643 28.6622C27.18 28.5774 27.1138 28.4763 27.0698 28.3649C27.0259 28.2536 27.005 28.1344 27.0086 28.0146C27.0086 27.7747 27.1034 27.5446 27.2723 27.375C27.4411 27.2054 27.6701 27.1101 27.9089 27.1101H51.2906C51.5293 27.1101 51.7583 27.2054 51.9272 27.375C52.096 27.5446 52.1909 27.7747 52.1909 28.0146C52.1944 28.1344 52.1736 28.2536 52.1296 28.3649C52.0856 28.4763 52.0194 28.5774 51.9351 28.6622C51.8508 28.7469 51.7501 28.8134 51.6393 28.8576C51.5284 28.9018 51.4098 28.9227 51.2906 28.9191Z" fill="white"/>
<path id="Vector_18" d="M51.2906 34.3463H47.7923C47.5535 34.3463 47.3246 34.251 47.1557 34.0814C46.9869 33.9117 46.892 33.6817 46.892 33.4418C46.892 33.2019 46.9869 32.9718 47.1557 32.8022C47.3246 32.6325 47.5535 32.5372 47.7923 32.5372H51.3935C51.6322 32.5372 51.8612 32.6325 52.0301 32.8022C52.1989 32.9718 52.2937 33.2019 52.2937 33.4418C52.299 33.571 52.2757 33.6998 52.2256 33.819C52.1755 33.9382 52.0999 34.0448 52.004 34.1312C51.9082 34.2176 51.7946 34.2817 51.6712 34.3189C51.5479 34.3561 51.4179 34.3654 51.2906 34.3463Z" fill="white"/>
<path id="Vector_19" d="M42.2877 34.3463H40.5129C40.3937 34.3499 40.275 34.3289 40.1642 34.2847C40.0533 34.2405 39.9527 34.174 39.8683 34.0893C39.784 34.0046 39.7178 33.9035 39.6739 33.7921C39.6299 33.6807 39.609 33.5615 39.6126 33.4418C39.6126 33.2019 39.7074 32.9718 39.8763 32.8022C40.0451 32.6325 40.2741 32.5372 40.5129 32.5372H42.2877C42.5265 32.5372 42.7555 32.6325 42.9243 32.8022C43.0931 32.9718 43.188 33.2019 43.188 33.4418C43.1916 33.5615 43.1707 33.6807 43.1267 33.7921C43.0827 33.9035 43.0166 34.0046 42.9322 34.0893C42.8479 34.174 42.7472 34.2405 42.6364 34.2847C42.5256 34.3289 42.4069 34.3499 42.2877 34.3463Z" fill="white"/>
<path id="Vector_20" d="M33.3106 34.3463H27.9089C27.7897 34.3499 27.671 34.3289 27.5602 34.2847C27.4493 34.2405 27.3487 34.174 27.2643 34.0893C27.18 34.0046 27.1138 33.9035 27.0698 33.7921C27.0259 33.6807 27.005 33.5615 27.0086 33.4418C27.0086 33.2019 27.1034 32.9718 27.2723 32.8022C27.4411 32.6325 27.6701 32.5372 27.9089 32.5372H33.3106C33.5493 32.5372 33.7783 32.6325 33.9472 32.8022C34.116 32.9718 34.2109 33.2019 34.2109 33.4418C34.2109 33.6817 34.116 33.9117 33.9472 34.0814C33.7783 34.251 33.5493 34.3463 33.3106 34.3463Z" fill="white"/>
<path id="Vector_21" d="M38.7123 16.2815C38.0421 16.2444 37.4091 15.9602 36.9345 15.4833C36.4599 15.0065 36.177 14.3705 36.14 13.6972C36.14 13.0117 36.4111 12.3544 36.8934 11.8697C37.3758 11.3851 38.0301 11.1128 38.7123 11.1128C39.405 11.1182 40.0697 11.3884 40.5713 11.8684C41.073 12.3484 41.374 13.0023 41.4131 13.6972C41.374 14.3921 41.073 15.0459 40.5713 15.5259C40.0697 16.0059 39.405 16.2761 38.7123 16.2815ZM38.7123 12.6634C38.5931 12.6598 38.4744 12.6808 38.3636 12.725C38.2528 12.7692 38.1521 12.8357 38.0678 12.9204C37.9835 13.0051 37.9173 13.1062 37.8733 13.2176C37.8293 13.329 37.8084 13.4482 37.812 13.568C37.812 13.8079 37.9069 14.0379 38.0757 14.2075C38.2445 14.3772 38.4735 14.4725 38.7123 14.4725C38.9511 14.4725 39.1801 14.3772 39.3489 14.2075C39.5177 14.0379 39.6126 13.8079 39.6126 13.568C39.6126 13.3281 39.5177 13.098 39.3489 12.9284C39.1801 12.7587 38.9511 12.6634 38.7123 12.6634Z" fill="white"/>
<path id="Vector_22" d="M38.8409 58.0708C39.3389 58.0708 39.8165 58.2696 40.1687 58.6234C40.5208 58.9772 40.7186 59.4571 40.7186 59.9574C40.722 60.2073 40.676 60.4555 40.5832 60.6873C40.4903 60.9192 40.3525 61.1303 40.1778 61.3082C40.0031 61.4861 39.795 61.6274 39.5655 61.7238C39.336 61.8202 39.0897 61.8699 38.8409 61.8699C38.5921 61.8699 38.3458 61.8202 38.1163 61.7238C37.8868 61.6274 37.6787 61.4861 37.504 61.3082C37.3293 61.1303 37.1915 60.9192 37.0986 60.6873C37.0058 60.4555 36.9598 60.2073 36.9632 59.9574C36.9632 59.4571 37.161 58.9772 37.5131 58.6234C37.8653 58.2696 38.3429 58.0708 38.8409 58.0708Z" fill="white"/>
</g>
<defs>
<clipPath id="clip0_5_462">
<rect width="81" height="85" fill="white"/>
</clipPath>
</defs>
</svg>
