<svg width="76" height="72" viewBox="0 0 76 72" fill="none" xmlns="http://www.w3.org/2000/svg">
<g id="_1" clip-path="url(#clip0_5_409)">
<path id="Vector" d="M49.5484 72H23.6278C23.4963 72.0019 23.3664 71.9727 23.2487 71.9146C23.1311 71.8566 23.0294 71.7715 22.952 71.6666C22.871 71.5633 22.8156 71.4426 22.7905 71.3144C22.7653 71.1861 22.7711 71.0539 22.8072 70.9282L27.6342 54.9468C27.682 54.7748 27.786 54.6233 27.93 54.5156C28.074 54.4079 28.25 54.3502 28.4306 54.3513H44.7215C44.9053 54.349 45.0849 54.4058 45.2329 54.5133C45.381 54.6207 45.4896 54.7729 45.5421 54.9468L50.369 70.8568C50.3936 70.9585 50.3936 71.0646 50.369 71.1664C50.3691 71.3834 50.2834 71.5919 50.1302 71.7476C49.977 71.9033 49.7682 71.9938 49.5484 72ZM24.7621 70.3328H48.4141L44.0457 56.0423H29.1064L24.7621 70.3328Z" fill="white"/>
<path id="Vector_2" d="M57.5611 72H15.4462C15.2221 72 15.0073 71.9122 14.8489 71.7558C14.6905 71.5995 14.6015 71.3875 14.6015 71.1664C14.6015 70.9453 14.6905 70.7333 14.8489 70.5769C15.0073 70.4206 15.2221 70.3328 15.4462 70.3328H57.5611C57.7852 70.3328 58 70.4206 58.1584 70.5769C58.3169 70.7333 58.4058 70.9453 58.4058 71.1664C58.4058 71.3875 58.3169 71.5995 58.1584 71.7558C58 71.9122 57.7852 72 57.5611 72Z" fill="white"/>
<path id="Vector_3" d="M12.2121 45.3245H0.868867C0.644835 45.3245 0.429991 45.2367 0.271577 45.0804C0.113163 44.924 0.0241394 44.712 0.0241394 44.4909C0.0241394 44.2698 0.113163 44.0577 0.271577 43.9014C0.429991 43.7451 0.644835 43.6573 0.868867 43.6573H12.2121C12.4362 43.6573 12.651 43.7451 12.8094 43.9014C12.9678 44.0577 13.0569 44.2698 13.0569 44.4909C13.0569 44.712 12.9678 44.924 12.8094 45.0804C12.651 45.2367 12.4362 45.3245 12.2121 45.3245Z" fill="white"/>
<path id="Vector_4" d="M73.6831 45.3245H19.3318C19.22 45.3278 19.1087 45.3085 19.0047 45.2677C18.9007 45.227 18.8062 45.1658 18.7271 45.0877C18.648 45.0096 18.5859 44.9164 18.5446 44.8137C18.5034 44.7111 18.4838 44.6012 18.4872 44.4909C18.4872 44.2698 18.5761 44.0577 18.7346 43.9014C18.893 43.7451 19.1078 43.6573 19.3318 43.6573H73.6831C73.9071 43.6573 74.122 43.7451 74.2804 43.9014C74.4388 44.0577 74.5278 44.2698 74.5278 44.4909C74.5278 44.712 74.4388 44.924 74.2804 45.0804C74.122 45.2367 73.9071 45.3245 73.6831 45.3245Z" fill="white"/>
<path id="Vector_5" d="M69.7733 56.0185H4.87521C3.59503 56.0185 2.36727 55.5166 1.46205 54.6233C0.556825 53.73 0.0482788 52.5184 0.0482788 51.255V4.76348C0.0482788 3.50013 0.556825 2.28851 1.46205 1.39519C2.36727 0.501862 3.59503 0 4.87521 0H69.7733C71.0534 0 72.2812 0.501862 73.1864 1.39519C74.0916 2.28851 74.6002 3.50013 74.6002 4.76348V51.2312C74.6034 51.8588 74.4809 52.4808 74.2397 53.0615C73.9986 53.6421 73.6435 54.1701 73.195 54.6149C72.7464 55.0598 72.2132 55.4127 71.626 55.6536C71.0388 55.8945 70.4092 56.0185 69.7733 56.0185ZM4.87521 1.66725C4.04085 1.66722 3.24032 1.99262 2.64809 2.57261C2.05585 3.1526 1.71991 3.94012 1.71354 4.76348V51.2312C1.71354 52.0587 2.04666 52.8523 2.63958 53.4375C3.2325 54.0226 4.03669 54.3513 4.87521 54.3513H69.7733C70.6118 54.3513 71.416 54.0226 72.0089 53.4375C72.6018 52.8523 72.9349 52.0587 72.9349 51.2312V4.76348C72.9285 3.94012 72.5926 3.1526 72.0004 2.57261C71.4082 1.99262 70.6076 1.66722 69.7733 1.66725H4.87521Z" fill="white"/>
<path id="Vector_6" d="M16.0495 66.9984H0.844727C0.620696 66.9984 0.405815 66.9105 0.247401 66.7542C0.0889864 66.5979 0 66.3858 0 66.1647C0 66.0553 0.0218484 65.9469 0.0642991 65.8457C0.10675 65.7446 0.168962 65.6527 0.247401 65.5753C0.32584 65.4979 0.418979 65.4365 0.521464 65.3946C0.623949 65.3527 0.733798 65.3311 0.844727 65.3311H16.0495C16.1605 65.3311 16.2703 65.3527 16.3728 65.3946C16.4753 65.4365 16.5684 65.4979 16.6468 65.5753C16.7253 65.6527 16.7875 65.7446 16.83 65.8457C16.8724 65.9469 16.8943 66.0553 16.8943 66.1647C16.8943 66.3858 16.8053 66.5979 16.6468 66.7542C16.4884 66.9105 16.2736 66.9984 16.0495 66.9984Z" fill="white"/>
<path id="Vector_7" d="M7.6024 61.9967H0.844727C0.620696 61.9967 0.405815 61.9089 0.247401 61.7525C0.0889864 61.5962 0 61.3841 0 61.1631C0 60.942 0.0889864 60.7299 0.247401 60.5736C0.405815 60.4173 0.620696 60.3294 0.844727 60.3294H7.6024C7.82643 60.3294 8.04131 60.4173 8.19972 60.5736C8.35814 60.7299 8.44713 60.942 8.44713 61.1631C8.44713 61.3841 8.35814 61.5962 8.19972 61.7525C8.04131 61.9089 7.82643 61.9967 7.6024 61.9967Z" fill="white"/>
<path id="Vector_8" d="M75.1553 66.9984H59.9505C59.7265 66.9984 59.5116 66.9105 59.3532 66.7542C59.1948 66.5979 59.1058 66.3858 59.1058 66.1647C59.1058 66.0553 59.1276 65.9469 59.1701 65.8457C59.2125 65.7446 59.2748 65.6527 59.3532 65.5753C59.4316 65.4979 59.5248 65.4365 59.6272 65.3946C59.7297 65.3527 59.8396 65.3311 59.9505 65.3311H75.1553C75.2662 65.3311 75.3761 65.3527 75.4786 65.3946C75.5811 65.4365 75.6742 65.4979 75.7526 65.5753C75.8311 65.6527 75.8933 65.7446 75.9357 65.8457C75.9782 65.9469 76 66.0553 76 66.1647C76 66.3858 75.911 66.5979 75.7526 66.7542C75.5942 66.9105 75.3793 66.9984 75.1553 66.9984Z" fill="white"/>
<path id="Vector_9" d="M75.1553 61.9967H68.3976C68.2857 62 68.1744 61.9806 68.0704 61.9399C67.9664 61.8992 67.872 61.838 67.7928 61.7599C67.7137 61.6818 67.6516 61.5886 67.6103 61.4859C67.5691 61.3833 67.5495 61.2734 67.5529 61.1631C67.5529 60.942 67.6419 60.7299 67.8003 60.5736C67.9587 60.4173 68.1735 60.3294 68.3976 60.3294H75.1553C75.3793 60.3294 75.5942 60.4173 75.7526 60.5736C75.911 60.7299 76 60.942 76 61.1631C76 61.3841 75.911 61.5962 75.7526 61.7525C75.5942 61.9089 75.3793 61.9967 75.1553 61.9967Z" fill="white"/>
<path id="Vector_10" d="M65.0187 38.6794H9.29184C9.06781 38.6794 8.85293 38.5916 8.69451 38.4353C8.5361 38.279 8.44711 38.0669 8.44711 37.8458C8.44377 37.7354 8.46333 37.6256 8.5046 37.5229C8.54587 37.4203 8.60796 37.3271 8.68707 37.2491C8.76619 37.171 8.86064 37.1097 8.96464 37.069C9.06863 37.0282 9.18 37.009 9.29184 37.0123H65.0187C65.1297 37.0123 65.2395 37.0338 65.342 37.0757C65.4445 37.1176 65.5376 37.179 65.616 37.2564C65.6945 37.3338 65.7567 37.4257 65.7991 37.5269C65.8416 37.628 65.8634 37.7363 65.8634 37.8458C65.8634 38.0669 65.7744 38.279 65.616 38.4353C65.4576 38.5916 65.2428 38.6794 65.0187 38.6794Z" fill="white"/>
<path id="Vector_11" d="M58.261 33.6778H16.0495C15.8255 33.6778 15.6106 33.5899 15.4522 33.4336C15.2938 33.2773 15.2048 33.0653 15.2048 32.8442C15.2015 32.7338 15.2211 32.624 15.2623 32.5213C15.3036 32.4187 15.3657 32.3255 15.4448 32.2474C15.5239 32.1693 15.6184 32.108 15.7224 32.0673C15.8264 32.0266 15.9377 32.0073 16.0495 32.0106H58.261C58.4851 32.0106 58.6999 32.0984 58.8583 32.2547C59.0168 32.4111 59.1057 32.6231 59.1057 32.8442C59.1057 33.0653 59.0168 33.2773 58.8583 33.4336C58.6999 33.5899 58.4851 33.6778 58.261 33.6778Z" fill="white"/>
<path id="Vector_12" d="M73.4659 13.6712H0.844727C0.733798 13.6712 0.623949 13.6496 0.521464 13.6077C0.418979 13.5658 0.32584 13.5044 0.247401 13.427C0.168962 13.3496 0.10675 13.2577 0.0642992 13.1566C0.0218484 13.0554 0 12.947 0 12.8375C0 12.7281 0.0218484 12.6197 0.0642992 12.5186C0.10675 12.4175 0.168962 12.3256 0.247401 12.2481C0.32584 12.1707 0.418979 12.1093 0.521464 12.0675C0.623949 12.0256 0.733798 12.004 0.844727 12.004H73.4659C73.5768 12.004 73.6866 12.0256 73.7891 12.0675C73.8916 12.1093 73.9847 12.1707 74.0632 12.2481C74.1416 12.3256 74.2038 12.4175 74.2463 12.5186C74.2887 12.6197 74.3106 12.7281 74.3106 12.8375C74.3106 12.947 74.2887 13.0554 74.2463 13.1566C74.2038 13.2577 74.1416 13.3496 74.0632 13.427C73.9847 13.5044 73.8916 13.5658 73.7891 13.6077C73.6866 13.6496 73.5768 13.6712 73.4659 13.6712Z" fill="white"/>
<path id="Vector_13" d="M66.7082 8.66949H43.0562C42.8574 8.64718 42.673 8.55598 42.536 8.41204C42.399 8.2681 42.3182 8.08079 42.308 7.88355C42.308 7.77408 42.3299 7.66567 42.3723 7.56454C42.4148 7.4634 42.477 7.37148 42.5555 7.29408C42.6339 7.21667 42.727 7.15527 42.8295 7.11338C42.932 7.07149 43.0418 7.04993 43.1528 7.04993H66.8047C66.9156 7.04993 67.0255 7.07149 67.128 7.11338C67.2304 7.15527 67.3236 7.21667 67.402 7.29408C67.4804 7.37148 67.5427 7.4634 67.5851 7.56454C67.6276 7.66567 67.6494 7.77408 67.6494 7.88355C67.6436 7.99746 67.6141 8.10899 67.5629 8.21121C67.5116 8.31344 67.4397 8.40422 67.3514 8.4779C67.2632 8.55157 67.1606 8.60658 67.0499 8.63955C66.9393 8.67251 66.823 8.68267 66.7082 8.66949Z" fill="white"/>
<path id="Vector_14" d="M28.2616 27.8425H25.8482L24.1829 21.2213L22.59 27.8425H20.1766L17.57 17.8392H19.9835L21.4074 24.0556L21.5281 24.5796L23.1693 17.8392H25.3414L27.0308 24.5796V24.127L28.503 17.8392H30.4579L28.2616 27.8425Z" fill="white"/>
<path id="Vector_15" d="M41.5599 27.8425H39.1464L37.4811 21.2213L35.8882 27.8425H33.4747L30.8682 17.8392H33.2817L34.7056 24.0556V24.5796L36.3468 17.8392H38.5189L40.2083 24.5796V24.127L41.7047 17.8392H43.6354L41.5599 27.8425Z" fill="white"/>
<path id="Vector_16" d="M54.858 27.8425H52.4446L50.7793 21.2213L49.1864 27.8425H46.7729L44.1664 17.8392H46.5798L48.0038 24.0556V24.5796L49.645 17.8392H51.8171L53.5065 24.5796V24.127L55.0029 17.8392H56.9336L54.858 27.8425Z" fill="white"/>
<path id="Vector_17" d="M36.4433 47.8253C36.9128 47.8316 37.3609 48.02 37.6906 48.3499C38.0203 48.6797 38.2052 49.1245 38.2051 49.5879C38.2051 50.049 38.0195 50.4912 37.6891 50.8172C37.3587 51.1433 36.9106 51.3265 36.4433 51.3265C35.9738 51.3265 35.5232 51.1441 35.1889 50.8187C34.8547 50.4933 34.6637 50.0512 34.6573 49.5879C34.6573 49.1204 34.8455 48.6721 35.1804 48.3416C35.5154 48.0111 35.9696 47.8253 36.4433 47.8253Z" fill="white"/>
<path id="Vector_18" d="M9.29184 6.1687H5.91299V9.50314H9.29184V6.1687Z" fill="white"/>
<path id="Vector_19" d="M14.3601 6.1687H10.9813V9.50314H14.3601V6.1687Z" fill="white"/>
<path id="Vector_20" d="M19.4284 6.1687H16.0495V9.50314H19.4284V6.1687Z" fill="white"/>
</g>
<defs>
<clipPath id="clip0_5_409">
<rect width="76" height="72" fill="white"/>
</clipPath>
</defs>
</svg>
